<?xml version="1.0" standalone="no"?>
<!DOCTYPE svg PUBLIC "-//W3C//DTD SVG 20010904//EN"
 "http://www.w3.org/TR/2001/REC-SVG-20010904/DTD/svg10.dtd">
<svg version="1.0" xmlns="http://www.w3.org/2000/svg"
 width="138.000000pt" height="138.000000pt" viewBox="0 0 138.000000 138.000000"
 preserveAspectRatio="xMidYMid meet">
<metadata>
Created by potrace 1.14, written by Peter Selinger 2001-2017
</metadata>
<g transform="translate(0.000000,138.000000) scale(0.100000,-0.100000)"
fill="#000000" stroke="none">
<path d="M549 1365 c-240 -51 -434 -224 -513 -457 -24 -72 -28 -96 -31 -193
-8 -192 58 -367 188 -498 82 -84 124 -113 220 -157 216 -97 487 -69 683 72 32
23 59 33 87 35 62 3 95 57 53 85 -7 4 -4 13 6 25 29 32 75 118 96 179 100 284
9 597 -226 778 -158 121 -375 172 -563 131z"/>
</g>
</svg>
