<svg xmlns="http://www.w3.org/2000/svg" width="214" height="30" fill="none"><path fill="#DBCECE" d="M9.484 14.227c-.12 0-.242-.008-.367-.024a2.796 2.796 0 0 0-.273-.015 3.383 3.383 0 0 1-.586-.047c-.115-.026-.188-.084-.219-.172a2.019 2.019 0 0 1-.047-.446v-.046c0-.282-.044-.709-.133-1.282a32.734 32.734 0 0 1-.257-2.023c-.073-.776-.146-1.33-.22-1.664-.197.354-.54 1.568-1.03 3.64-.292 1.224-.47 1.899-.532 2.024l-.304.055a5.028 5.028 0 0 1-.368-.907L5 12.898a4.431 4.431 0 0 1-.227-.671 4.878 4.878 0 0 0-.203-.68c-.125-.297-.286-.88-.484-1.75a10.853 10.853 0 0 0-.11-.469c-.03-.14-.057-.263-.078-.367a1.892 1.892 0 0 0-.062-.172c-.01-.02-.023-.031-.04-.031a.053.053 0 0 1-.038-.016l-.524 1.672c-.135.401-.263.82-.382 1.258l-.11.406a14.92 14.92 0 0 0-.32 1.297c-.057.338-.128.55-.211.633-.068.068-.195.101-.383.101-.276 0-.505-.02-.687-.062a1.053 1.053 0 0 1-.36-.18v-.117c0-.219.034-.596.102-1.133.068-.542.148-1.099.242-1.672.099-.578.188-.937.266-1.078a.407.407 0 0 1-.016-.125c0-.088.016-.221.047-.398.062-.396.154-.758.273-1.086.047-.276.13-.625.25-1.047.151-.583.227-.938.227-1.063.036-.057.107-.28.21-.671.157-.547.35-1.144.579-1.79.234-.645.477-1.052.727-1.218.218.276.351.596.398.96.036.188.088.378.156.571.459 1.333.883 2.956 1.274 4.867l.062.281c.12-.135.221-.38.305-.734.104-.422.648-1.664 1.633-3.726.349-.735.596-1.227.742-1.477.15-.255.291-.383.422-.383.052 0 .106.013.164.04.015.015.041.26.078.734.114 1.458.24 2.322.375 2.593-.021.115-.031.253-.031.414 0 .323.046.862.14 1.618.047.333.078.609.094.828l.188 3.008c.078.182.117.682.117 1.5 0 .312-.016.505-.047.578-.063.057-.154.086-.274.086Zm8.43-.149-.492-.125c-.031-.203-.047-.547-.047-1.031v-.719a3.82 3.82 0 0 0-.016-.328l-.023-.54a57.546 57.546 0 0 1-.008-1.429c.01-.297.016-.601.016-.914 0-.943-.047-1.95-.14-3.023l-.009-.57c0-.766.042-1.54.125-2.32.188-.095.37-.142.547-.142l.297-.007c.323 0 .565.052.727.156.088.193.132 1.305.132 3.336 0 1.036-.007 2.083-.023 3.14l-.008.75-.015.25a.607.607 0 0 1-.04.204c0 .203.006.432.016.687a11.628 11.628 0 0 1 .016 1.18 6.077 6.077 0 0 0-.008.336v.21c0 .433-.016.699-.047.798a1.34 1.34 0 0 1-.445.085c-.047 0-.091-.002-.133-.007a.773.773 0 0 0-.11-.008c-.098 0-.203.01-.312.031Zm-5.46-.11a8.66 8.66 0 0 1-1.212-.085c-.057-.526-.086-1.677-.086-3.453 0-1.797.031-2.907.094-3.328a4.402 4.402 0 0 1-.07-.797c0-.339.02-.675.062-1.008a5.878 5.878 0 0 0 0-1.024 8.553 8.553 0 0 1-.015-.5c0-.302.028-.583.085-.843l1.11.023.18-.008c.171 0 .32.029.445.086.13.052.195.227.195.524 0 .265-.01.539-.031.82l-.024.648a17.41 17.41 0 0 1-.101 1.711 29.41 29.41 0 0 0-.078.954 7.26 7.26 0 0 1 1.21.218c.47.12.845.266 1.126.438.198.067.357.148.476.242.12.088.24.226.36.414.146.203.26.427.343.672.026.099.055.284.086.555.037.317.055.598.055.843 0 .22-.026.347-.078.383 0 .156-.06.367-.18.633s-.265.508-.437.726c-.167.214-.323.323-.469.329-.146.218-.537.416-1.172.593a6.946 6.946 0 0 1-1.875.235Zm.82-1.468c.302 0 .601-.04.898-.117.213-.068.372-.14.476-.219.11-.078.25-.213.422-.406l.04-.297c.025-.13.041-.279.046-.445 0-.323-.062-.618-.187-.883-.245-.5-.8-.75-1.664-.75-.14 0-.282.01-.422.031a4.19 4.19 0 0 0-.024.43c0 .083.006.177.016.281l-.11 1.852.032.492c.161.02.32.031.476.031ZM30.757 14h-.11a.806.806 0 0 1-.25-.023l-.156-.07-.351-4.61-.336-.008c-.209 0-.393.013-.555.04-.255.036-.45.054-.586.054-.213 0-.453-.013-.719-.04l-.601-.038c-.016.406-.026.77-.032 1.093-.01.667-.049 1.446-.117 2.336a3.772 3.772 0 0 0-.008.25l.016.555c0 .167-.01.315-.031.445a3.105 3.105 0 0 0-.469-.03l-.273.007a3.11 3.11 0 0 1-.352.023.667.667 0 0 1-.226-.039c-.1-.041-.149-.245-.149-.61 0-.181.013-.416.04-.702-.105-2.61-.16-4.089-.165-4.438-.02-1-.031-1.89-.031-2.672 0-1.057.026-1.65.078-1.78V3.25c0-.182.026-.3.078-.352.057-.052.328-.078.813-.078.302 0 .52.024.656.07.156.058.234.199.234.422v.118a9.666 9.666 0 0 0-.008 1.226l.008.477c0 .276-.01.547-.031.812-.02.22-.031.589-.031 1.11 0 .244.008.442.023.593.63.042 1.258.063 1.883.063.281 0 .565-.005.852-.016.005-.15.007-.325.007-.523l-.007-.688c-.01-.291-.016-.586-.016-.882 0-.391.008-.86.023-1.407.016-.552.081-.984.196-1.297.14-.062.317-.093.53-.093.287 0 .543.034.767.101l.085 3.438c.063.87.094 1.692.094 2.468 0 .355-.008.67-.023.946.078.11.133.542.164 1.297.01.38.015.664.015.851 0 .12-.007.235-.023.344-.01.11-.018.224-.023.344 0 .193.015.414.047.664.015.14.026.268.03.383l.04.257c-.151.053-.485.086-1 .102Zm5.055-4.656 1.789-.024c.062 0 .093-.01.093-.03l-.015-.048c-.198-.77-.318-1.36-.36-1.765-.073-.563-.185-.92-.336-1.07l-.164.46c-.187.464-.312.807-.375 1.031l-.21.454c-.23.474-.37.804-.422.992Zm-1.641 4.765h-.047c-.099 0-.362-.02-.79-.062-.463-.042-.72-.078-.773-.11a.402.402 0 0 1-.03-.164c0-.203.122-.627.366-1.273.089-.234.151-.417.188-.547.036-.156.094-.37.172-.64.203-.688.385-1.123.547-1.305a2.66 2.66 0 0 1 .11-.524c.135-.463.278-.877.429-1.242a58.24 58.24 0 0 1 1.14-2.64c.605-1.334.977-2.04 1.118-2.118.114-.323.263-.552.445-.687.198.156.398.565.601 1.226.079.256.12.448.125.579.105.125.235.421.391.89.094.302.188.534.281.696.052.171.138.432.258.78l.867 2.641c.85 2.6 1.274 3.99 1.274 4.172v.008a.497.497 0 0 1-.266.164.879.879 0 0 1-.172.016c-.036 0-.08-.003-.133-.008a.763.763 0 0 0-.164-.016l-.297.016a1.88 1.88 0 0 1-.234.016c-.146 0-.284-.024-.414-.07-.167-.225-.409-.917-.727-2.079-.14-.526-.265-.927-.374-1.203a3.5 3.5 0 0 0-.329.031 2.436 2.436 0 0 1-.359.024h-.086a7.784 7.784 0 0 0-.39-.008c-.449 0-.993.047-1.633.14-.214.433-.487 1.222-.82 2.368l-.274.93Zm13.242.032c-.12 0-.26-.021-.422-.063-.114-.125-.278-.398-.492-.82a5.017 5.017 0 0 0-.32-.563 5.677 5.677 0 0 1-.43-.875l-.195-.46a.988.988 0 0 1-.25-.376 2.07 2.07 0 0 0-.094-.21 1.049 1.049 0 0 1-.18-.235 1.22 1.22 0 0 1-.187.234 2.07 2.07 0 0 0-.094.211.96.96 0 0 1-.25.368l-.21.46c-.12.308-.267.6-.438.876-.094.145-.198.33-.313.554-.224.427-.393.7-.508.82a1.948 1.948 0 0 1-.765.032 2.34 2.34 0 0 0-.29-.016l-.257.008-.547-.164c.088-.245.302-.675.64-1.29.224-.405.373-.69.446-.85l.172-.36c.03-.057.062-.123.093-.195.1-.209.443-.85 1.032-1.922l.414-.766a13.6 13.6 0 0 1-.313-.687l-.633-1.297c-.187-.276-.536-.94-1.046-1.992-.5-1.021-.75-1.586-.75-1.696.15-.12.408-.182.773-.187.365 0 .688.044.969.132.666.99 1.242 1.977 1.726 2.961l.352.704.36-.704c.494-.979 1.08-1.96 1.757-2.945.26-.078.563-.117.906-.117.401 0 .68.065.836.195 0 .094-.255.654-.765 1.68-.526 1.057-.883 1.719-1.07 1.984l-.641 1.297c-.078.177-.185.406-.32.688l.406.773c.552 1.01.89 1.651 1.015 1.922.026.073.055.138.086.195.058.115.115.237.172.367.136.282.281.566.438.852.333.62.541 1.05.625 1.29l-.547.163a2.415 2.415 0 0 0-.266-.015c-.104 0-.198.007-.281.023-.11.01-.224.016-.344.016Zm6.219-1.914c1.27 0 2-.586 2.187-1.758.021-.172.05-.365.086-.578.1-.61.149-1.042.149-1.297 0-1.526-.5-2.92-1.5-4.18a.94.94 0 0 1-.242-.086.686.686 0 0 0-.336-.086 1.26 1.26 0 0 0-.375.078c-.459.162-.756.295-.891.399-.354.354-.636.898-.844 1.633-.208.734-.312 1.349-.312 1.843l.008.875c0 .47-.016.914-.047 1.336.047.037.145.222.297.555.171.411.317.69.437.836.208.219.578.357 1.11.414.093.01.184.016.273.016Zm-.742 2.007c-1.052 0-1.85-.4-2.391-1.203-.177-.276-.362-.716-.555-1.32a12.21 12.21 0 0 1-.43-1.79 4.63 4.63 0 0 1-.054-.655c0-.25.034-.44.102-.57a2.022 2.022 0 0 1-.024-.329c0-.276.047-.685.14-1.226.094-.542.245-1.112.454-1.711.213-.6.437-.982.672-1.149.12-.36.481-.713 1.086-1.062.604-.354 1.184-.56 1.742-.617l.43-.032c.156-.015.291-.023.406-.023.11.005.229.031.36.078.312.115.635.281.968.5.453.302.708.544.766.727.203.15.374.403.515.757.146.35.266.683.36 1 .093.313.164.498.21.555.047.266.102.529.164.79.141.54.214 1.098.22 1.671-.011.083-.027.174-.048.273-.02.094-.036.172-.047.235 0 .104.008.18.024.226.02.042.036.112.047.211a1.87 1.87 0 0 1-.117.602 4.703 4.703 0 0 0-.094.336c-.11.562-.339 1.13-.688 1.703-.343.573-.773.99-1.289 1.25-.406.297-.955.51-1.648.64a6.87 6.87 0 0 1-1.281.133Zm10.992-2.03.015-.798c0-.114-.007-.432-.023-.953.005-.182.018-.362.04-.539.02-.182.03-.37.03-.562v-.094c0-.271.021-.555.063-.852a5.09 5.09 0 0 0 .055-.719c0-.109-.006-.216-.016-.32l-.102-2.758-.008-.007a5.761 5.761 0 0 0-.695-.04h-.094l-.273.024c-.036.48-.063.724-.078.734l-.18 1.852a26.161 26.161 0 0 1-.265 2.094c-.042.182-.089.437-.141.765-.115.917-.302 1.638-.563 2.164h.414v.008c.303-.005.607-.008.915-.008l.906.008Zm1.43 2.858c-.13 0-.232-.01-.305-.03-.104-.032-.156-.115-.156-.25 0-.074.013-.21.039-.407l.054-.39h-.453c-.15 0-.307-.006-.469-.016a21.886 21.886 0 0 0-.648-.024c-.39 0-.74-.002-1.047-.008-.302 0-.484.003-.547.008-.14.01-.336.018-.586.024l-.906.015.023.22c.032.25.047.437.047.562 0 .14-.054.229-.164.265-.073.021-.174.031-.304.031l-.399-.015-.203.008-.516-.024c-.02-.182-.046-.38-.078-.594a6.095 6.095 0 0 1-.07-.624 5.312 5.312 0 0 1-.125-1.211l-.008-.368c.14 0 .281-.005.422-.015.089-.005.18-.008.273-.008h.188c.188-.078.378-.219.57-.422.021-.047.05-.101.086-.164.459-.662.716-1.797.774-3.406.026-.76.083-1.412.172-1.953.093-.547.158-.862.195-.946a12.12 12.12 0 0 1-.04-.96c0-.386.022-.758.063-1.118l.04-.406h.39a.878.878 0 0 0 .156-.016c.058-.01.12-.015.188-.015l.789.007c.24 0 .638.008 1.195.024l.664-.008c.36 0 .589.01.688.031.104.016.226.024.367.024a103.854 103.854 0 0 1-.008 6.523l-.008.54.016 1.03c0 .256-.005.514-.016.774v.094c0 .12.008.24.024.36l.414.007.281.008c.135.01.276.015.422.015l-.024.368c-.015.458-.07.861-.164 1.21 0 .084-.062.49-.187 1.22l-.508.023h-.39l-.212.008ZM68.647 14a1 1 0 0 1-.242-.031c-.078-.021-.125-.104-.14-.25.057-.245.09-.495.101-.75l.031-.344c0-.255-.002-.503-.007-.742a62.082 62.082 0 0 1 .063-4.539 56.85 56.85 0 0 0 .093-3.016c0-.557-.016-1.023-.047-1.398l.125-.047a.228.228 0 0 0 .078-.008.06.06 0 0 1 .024-.008c0-.02.057-.031.171-.031.204 0 .334-.005.391-.016.063-.01.123-.015.18-.015.083 0 .182.018.297.054l.14.032h.18c.073 0 .154.007.242.023l-.016.273c-.072.495-.109 1.04-.109 1.633l.016.828c0 .396-.013.771-.04 1.125l-.163 1.899c0 .01-.003.018-.008.023L70 8.72c.026.088.04.19.04.304 0 .188-.043.748-.126 1.68.052-.114.135-.312.25-.594l.938-2.296c.421-1.021.671-1.566.75-1.633.041-.172.111-.362.21-.57.073-.167.162-.394.266-.68.12-.35.221-.568.305-.657v-.03c0-.09.036-.238.11-.446.077-.23.137-.344.179-.344h.008a.88.88 0 0 1 .164-.367.371.371 0 0 1 .312-.156h.04c.28-.016.64-.024 1.077-.024.198 0 .323.005.375.016l-.007.734c.026.063.039.401.039 1.016 0 .172-.003.406-.008.703-.005.297-.016.599-.031.906-.01.302-.021.472-.032.508l.016.64c.052.652.078 1.36.078 2.126 0 .765-.01 1.479-.031 2.14v.72c0 .728-.04 1.215-.117 1.46a1.176 1.176 0 0 0-.188.031c-.057.01-.166.021-.328.031l-.445.016c-.125 0-.24-.01-.344-.031-.156-.037-.234-.146-.234-.328v-.04c.02-.317.041-.952.062-1.906l.07-3.085c.01-.521.037-1.175.079-1.961a17.74 17.74 0 0 0-.485 1.015c-.531 1.177-.851 1.98-.96 2.406a16.67 16.67 0 0 1-.259.711c-.203.526-.338.834-.406.922l-.242.531c-.313.704-.477 1.094-.492 1.172a.643.643 0 0 0-.125.235.839.839 0 0 1-.195.289c-.042.078-.201.117-.477.117-.146 0-.297-.005-.453-.016l-.281-.007c-.079 0-.141.002-.188.007-.088.01-.177.016-.266.016Zm16.165.227c-.12 0-.243-.008-.368-.024a2.797 2.797 0 0 0-.273-.015 3.383 3.383 0 0 1-.586-.047c-.115-.026-.188-.084-.219-.172a2.014 2.014 0 0 1-.047-.446v-.046c0-.282-.044-.709-.132-1.282a32.688 32.688 0 0 1-.258-2.023c-.073-.776-.146-1.33-.22-1.664-.197.354-.54 1.568-1.03 3.64-.292 1.224-.47 1.899-.532 2.024l-.304.055a5.016 5.016 0 0 1-.367-.907l-.149-.422a4.438 4.438 0 0 1-.226-.671 4.87 4.87 0 0 0-.204-.68c-.125-.297-.286-.88-.484-1.75a11.002 11.002 0 0 0-.11-.469c-.03-.14-.057-.263-.077-.367a1.912 1.912 0 0 0-.063-.172c-.01-.02-.023-.031-.039-.031a.053.053 0 0 1-.04-.016l-.522 1.672c-.136.401-.264.82-.383 1.258l-.11.406a14.95 14.95 0 0 0-.32 1.297c-.057.338-.128.55-.21.633-.069.068-.196.101-.384.101a3.16 3.16 0 0 1-.687-.062 1.053 1.053 0 0 1-.36-.18v-.117c0-.219.034-.596.102-1.133.068-.542.148-1.099.242-1.672.1-.578.188-.937.266-1.078a.404.404 0 0 1-.016-.125c0-.088.016-.221.047-.398.063-.396.154-.758.273-1.086.047-.276.13-.625.25-1.047.151-.583.227-.938.227-1.063.037-.057.107-.28.21-.671.157-.547.35-1.144.58-1.79.233-.645.476-1.052.726-1.218.218.276.351.596.398.96.037.188.089.378.156.571.459 1.333.883 2.956 1.274 4.867l.062.281c.12-.135.222-.38.305-.734.104-.422.648-1.664 1.633-3.726.349-.735.596-1.227.742-1.477.151-.255.292-.383.422-.383.052 0 .107.013.164.04.016.015.041.26.078.734.115 1.458.24 2.322.375 2.593-.02.115-.031.253-.031.414 0 .323.047.862.14 1.618.047.333.079.609.094.828l.188 3.008c.078.182.117.682.117 1.5 0 .312-.016.505-.047.578-.063.057-.154.086-.273.086Zm7.25-.227c-.928 0-1.857-.208-2.79-.625a4.632 4.632 0 0 1-.992-.617c-.786-.61-1.25-1.315-1.39-2.117a1.529 1.529 0 0 0-.094-.32c-.167-.334-.268-.943-.305-1.829a6.909 6.909 0 0 1-.008-.328c0-1.11.26-2.08.782-2.914.52-.839 1.414-1.505 2.68-2 .505-.208.958-.313 1.359-.313l.265.016c.245 0 .467-.034.664-.101.136-.026.269-.04.399-.04s.318.008.562.024c.245.01.506.031.782.062.276.026.474.06.593.102a3.3 3.3 0 0 1 .102.68c0 .099-.003.28-.008.547-.005.26-.08.481-.227.664a.732.732 0 0 1-.117.007c-.114 0-.283-.02-.507-.062a7.555 7.555 0 0 0-1.461-.156c-.344 0-.698.047-1.063.14l-.031.016a5.547 5.547 0 0 0-1.016.344c-.411.182-.713.5-.906.953-.099.25-.18.398-.242.445v.149c0 .208-.016.46-.047.757a8.404 8.404 0 0 0-.047.641c.026.531.125 1.018.297 1.46.057.183.107.358.148.524.146.12.271.237.375.352.11.114.222.221.336.32.115.094.266.175.453.242.303.11.836.185 1.602.227.12.005.227.013.32.023.35.032.64.055.875.07.302.016.524.04.664.071.14.026.232.078.274.156.041.073.068.196.078.367.01.24.031.493.062.758.026.23.042.45.047.664v.102c0 .094-.01.161-.031.203a.678.678 0 0 1-.383.18c-.161.02-.325.031-.492.031-.162 0-.307.008-.438.023a6.32 6.32 0 0 1-1.124.102Zm8.914.18-.219-.008a5.016 5.016 0 0 1-.914-.164c-.084-.255-.125-.797-.125-1.625 0-.708.039-1.292.117-1.75a.327.327 0 0 0 .016-.078.087.087 0 0 0-.008-.04 1.113 1.113 0 0 0-.063-.094l-.21.415c-.75 1.463-1.175 2.24-1.274 2.328a6.671 6.671 0 0 0-.203.461c-.094.24-.156.375-.188.406-.135.026-.422.04-.86.04-.723 0-1.145-.04-1.265-.118a.155.155 0 0 1-.015-.07c0-.172.164-.524.492-1.055.375-.604.62-.93.734-.976.01-.1.143-.339.399-.72.255-.38.53-.783.828-1.21l.453-.64a3.968 3.968 0 0 0-.563-.15 5.318 5.318 0 0 1-.648-.187 7.273 7.273 0 0 1-.523-.226 2.1 2.1 0 0 1-.454-.274 1.526 1.526 0 0 1-.726-.82c-.156-.38-.235-.706-.235-.977 0-.135.016-.268.047-.398a.484.484 0 0 1-.062-.258c0-.547.12-1.07.36-1.57.181-.38.431-.646.75-.797.072-.167.244-.315.515-.445.276-.136.57-.24.883-.313a3.27 3.27 0 0 1 .75-.117l.484-.008c.932 0 1.854.065 2.766.196v.25c0 .312-.016.854-.047 1.624 0 .1-.005.211-.016.336-.026.297-.039.57-.039.82 0 .22.018.407.055.563-.084.714-.125 1.834-.125 3.36v.265c0 .745-.039 1.487-.117 2.227a15.07 15.07 0 0 0-.047.703c-.026.552-.052.864-.078.937-.162.105-.37.157-.625.157Zm-1.61-6.47.399-.007c.005-.224.018-.404.039-.539a5.28 5.28 0 0 0 .023-.414c0-.11-.01-.242-.031-.398a3.96 3.96 0 0 1-.008-.274c0-.307.026-.721.078-1.242.026-.287.052-.5.078-.64l-.25-.008c-1.234 0-1.992.372-2.273 1.117a3.015 3.015 0 0 0-.117.765c0 .235.08.5.242.797.177.339.432.565.766.68.333.11.684.164 1.054.164Zm9.625 6.43c-.349 0-.583-.012-.703-.038a.179.179 0 0 1-.148-.141 1.407 1.407 0 0 1-.032-.344v-.406c-.052-.13-.078-.732-.078-1.805 0-.291.016-1.187.047-2.687.026-.854.086-2.388.18-4.602a9.325 9.325 0 0 1-.031-.687c0-.386.054-.6.164-.64a.762.762 0 0 1 .257-.04l.344.016h.164c.084-.006.156-.01.219-.016.068-.005.12-.008.156-.008.13 0 .198.013.203.04.058-.006.123-.019.196-.04a10.086 10.086 0 0 1 1.578.016c.364.026.948.05 1.75.07l.008-.008.195-.007c.828 0 1.315.026 1.461.078-.083.599-.125 1.046-.125 1.343l.008.204c0 .27-.016.75-.047 1.437a98.32 98.32 0 0 0-.008 4.008 105.15 105.15 0 0 1-.008 4.133 3.43 3.43 0 0 1-.914.101c-.271 0-.482-.029-.633-.086-.119-.312-.185-.732-.195-1.258a73.79 73.79 0 0 1-.016-1.32c0-.354.003-.7.008-1.039.005-.344.008-.64.008-.89v-.336c0-.303.042-1.654.125-4.055l-.008-.211c0-.063.003-.11.008-.14a.52.52 0 0 0 .008-.079c0-.052-.024-.08-.071-.086l-.179.008a.968.968 0 0 1-.133.008c-.432.031-.867.068-1.305.11-.896.077-1.385.116-1.468.116-.084 0-.136.008-.157.024-.021.01-.031.041-.031.094l.008.062v.11c.021.338.052 1.02.094 2.046l.015.383c0 .339-.005.69-.015 1.055-.011.323-.016.643-.016.96 0 .475.013.936.039 1.384.021.244.031.494.031.75 0 .182-.005.367-.015.554a9.469 9.469 0 0 0 .008 1.227l.007.14c0 .22-.075.355-.226.407-.146.057-.388.086-.727.086Zm11.11-1.913c1.27 0 2-.586 2.187-1.758.021-.172.05-.365.086-.578.099-.61.148-1.042.148-1.297 0-1.526-.5-2.92-1.5-4.18a.953.953 0 0 1-.242-.086.685.685 0 0 0-.336-.086 1.27 1.27 0 0 0-.375.078c-.458.162-.755.295-.89.399-.354.354-.636.898-.844 1.633-.208.734-.313 1.349-.313 1.843l.008.875c0 .47-.015.914-.047 1.336.047.037.146.222.297.555.172.411.318.69.438.836.208.219.578.357 1.109.414.094.01.185.016.274.016Zm-.743 2.007c-1.052 0-1.849-.4-2.39-1.203-.177-.276-.362-.716-.555-1.32-.193-.604-.336-1.2-.43-1.79a4.68 4.68 0 0 1-.054-.655c0-.25.034-.44.101-.57a2.096 2.096 0 0 1-.023-.329c0-.276.047-.685.14-1.226.094-.542.245-1.112.454-1.711.213-.6.437-.982.671-1.149.12-.36.482-.713 1.086-1.062.605-.354 1.185-.56 1.743-.617l.429-.032a4.18 4.18 0 0 1 .407-.023c.109.005.229.031.359.078.312.115.635.281.969.5.453.302.708.544.765.727.203.15.375.403.516.757a9.8 9.8 0 0 1 .359 1c.094.313.164.498.211.555.047.266.102.529.164.79.141.54.214 1.098.219 1.671-.01.083-.026.174-.047.273a5.15 5.15 0 0 0-.047.235c0 .104.008.18.024.226a.68.68 0 0 1 .047.211 1.89 1.89 0 0 1-.118.602 4.908 4.908 0 0 0-.093.336c-.11.562-.339 1.13-.688 1.703-.344.573-.773.99-1.289 1.25-.406.297-.956.51-1.648.64a6.877 6.877 0 0 1-1.282.133Zm13.86-4.89 1.789-.024c.062 0 .094-.01.094-.03l-.016-.048c-.198-.77-.318-1.36-.359-1.765-.073-.563-.185-.92-.336-1.07l-.164.46c-.188.464-.313.807-.375 1.031l-.211.454c-.23.474-.37.804-.422.992Zm-1.641 4.765h-.047c-.099 0-.362-.02-.789-.062-.463-.042-.721-.078-.773-.11a.398.398 0 0 1-.031-.164c0-.203.122-.627.367-1.273a7.03 7.03 0 0 0 .187-.547c.037-.156.094-.37.172-.64.203-.688.385-1.123.547-1.305a2.69 2.69 0 0 1 .109-.524c.136-.463.279-.877.43-1.242.245-.625.625-1.505 1.141-2.64.604-1.334.976-2.04 1.117-2.118.114-.323.263-.552.445-.687.198.156.399.565.602 1.226.078.256.119.448.125.579.104.125.234.421.39.89a3.5 3.5 0 0 0 .282.696c.052.171.138.432.257.78l.868 2.641c.849 2.6 1.273 3.99 1.273 4.172v.008a.498.498 0 0 1-.266.164.876.876 0 0 1-.172.016c-.036 0-.08-.003-.132-.008a.767.767 0 0 0-.164-.016l-.297.016c-.084.01-.162.016-.235.016-.145 0-.283-.024-.414-.07-.166-.225-.409-.917-.726-2.079a11.819 11.819 0 0 0-.375-1.203c-.11.005-.219.016-.328.031a2.447 2.447 0 0 1-.36.024h-.086a7.767 7.767 0 0 0-.39-.008c-.448 0-.993.047-1.633.14-.214.433-.487 1.222-.82 2.368l-.274.93Zm12.055-1.906.015-.797c0-.114-.007-.432-.023-.953.005-.182.018-.362.039-.539.021-.182.031-.37.031-.562v-.094c0-.271.021-.555.063-.852a5.16 5.16 0 0 0 .054-.719c0-.109-.005-.216-.015-.32l-.102-2.758-.007-.007a5.779 5.779 0 0 0-.696-.04h-.094l-.273.024c-.036.48-.063.724-.078.734l-.18 1.852a26.383 26.383 0 0 1-.265 2.094c-.042.182-.089.437-.141.765-.115.917-.302 1.638-.563 2.164h.414v.008c.303-.005.607-.008.915-.008l.906.008Zm1.429 2.86c-.13 0-.231-.01-.304-.032-.104-.031-.156-.114-.156-.25 0-.073.013-.208.039-.406l.054-.39h-.453c-.151 0-.307-.006-.469-.016a21.656 21.656 0 0 0-.648-.024c-.391 0-.74-.002-1.047-.008-.302 0-.484.003-.547.008-.14.01-.336.018-.586.024l-.906.015.023.22c.032.25.047.437.047.562 0 .14-.054.229-.164.265-.073.021-.174.031-.304.031l-.399-.015-.203.008-.516-.024c-.02-.182-.046-.38-.078-.594a6.03 6.03 0 0 1-.07-.624 5.329 5.329 0 0 1-.125-1.211l-.008-.368c.141 0 .281-.005.422-.015.089-.005.18-.008.274-.008h.187c.187-.078.378-.219.57-.422a1.88 1.88 0 0 1 .086-.164c.459-.662.716-1.797.774-3.406.026-.76.083-1.412.172-1.953.093-.547.158-.862.195-.946a12.167 12.167 0 0 1-.039-.96c0-.386.021-.758.062-1.118l.039-.406h.391a.874.874 0 0 0 .156-.016c.058-.01.12-.015.188-.015l.789.007c.239 0 .638.008 1.195.024l.664-.008c.36 0 .589.01.688.031.104.016.226.024.367.024a104.52 104.52 0 0 1-.008 6.523l-.008.54.016 1.03c0 .256-.005.514-.016.774v.094c0 .12.008.24.024.36l.414.007.281.008c.135.01.276.015.422.015l-.024.368c-.015.458-.07.861-.164 1.21 0 .084-.062.49-.187 1.22l-.508.023h-.391l-.211.008Zm5.047-7.899c1.396-.094 2.107-.557 2.133-1.39-.015-.5-.245-.873-.687-1.118a3.492 3.492 0 0 0-.703-.203 3.83 3.83 0 0 0-.688-.094l.008 1.07c0 .568-.021 1.147-.063 1.735ZM149.203 14h-.101c-.261 0-.495-.037-.704-.11a17.153 17.153 0 0 1-.156-2.398c0-.64.029-1.32.086-2.039.052-.76.078-1.432.078-2.015l-.039-1.266v-.234c0-.672.039-1.04.117-1.102a2.036 2.036 0 0 1-.015-.281c0-.084.002-.216.008-.399.01-.182.026-.403.046-.664a4.36 4.36 0 0 1 .079-.547c.166-.099.458-.148.875-.148.588 0 1.226.068 1.914.203.562.11.963.245 1.203.406.344.245.547.396.609.453.125.12.287.404.485.852.098.266.148.591.148.976l-.008.344a1.24 1.24 0 0 1-.211.64c-.052.303-.198.639-.437 1.009-.24.37-.492.63-.758.78a6.283 6.283 0 0 1-2.274.626c-.041.198-.086.542-.132 1.031-.099 1.01-.149 1.805-.149 2.383l.008.25c0 .146-.003.268-.008.367v.117c0 .204.034.401.102.594a1.98 1.98 0 0 1-.766.172Zm9.75 0h-.265c-.214 0-.626-.01-1.235-.031v-.016l-.75.008-.539.008c-.385 0-.732-.016-1.039-.047a35.354 35.354 0 0 1-.07-1.5 109.132 109.132 0 0 1-.078-3.852c0-1.442.044-2.263.132-2.46-.041-.183-.062-.482-.062-.9 0-.728.029-1.465.086-2.21.135-.125.664-.188 1.586-.188.385 0 .797.008 1.234.024a10.761 10.761 0 0 0 1.156 0 7.74 7.74 0 0 1 .594-.023c.542 0 1.034.06 1.477.18.057.218.086.478.086.78 0 .136-.011.26-.032.375-.036.188-.119.282-.25.282l-1.609-.008-1.602-.016c-.505 0-.843.005-1.015.016l-.008.594v.492l-.008.492c-.021.427-.031.839-.031 1.234 0 .167.005.302.016.407.078.046.559.07 1.445.07.542 0 1.068.01 1.578.031.51.021.865.078 1.062.172a3.6 3.6 0 0 1 .126.828c0 .235-.053.393-.157.477-.172.135-.617.203-1.336.203l-.383-.008-.843.008-1.461.062-.063 2.383c.485.089 1.44.133 2.867.133 1.021 0 1.568.029 1.641.086.083.193.123.42.117.68 0 .265-.023.505-.07.718-.042.214-.133.344-.273.391a1.29 1.29 0 0 1-.391.055h-.352l-1.281.07Zm9.485 0c-.928 0-1.857-.208-2.79-.625a4.646 4.646 0 0 1-.992-.617c-.786-.61-1.25-1.315-1.39-2.117a1.517 1.517 0 0 0-.094-.32c-.167-.334-.268-.943-.305-1.829a7.185 7.185 0 0 1-.008-.328c0-1.11.261-2.08.782-2.914.52-.839 1.414-1.505 2.679-2 .506-.208.959-.313 1.36-.313l.265.016c.245 0 .466-.034.664-.101a2.12 2.12 0 0 1 .399-.04c.13 0 .318.008.562.024.245.01.506.031.782.062.276.026.474.06.593.102.052.188.086.414.102.68 0 .099-.003.28-.008.547-.005.26-.081.481-.227.664a.725.725 0 0 1-.117.007c-.114 0-.284-.02-.507-.062a7.571 7.571 0 0 0-1.461-.156c-.344 0-.698.047-1.063.14l-.031.016a5.558 5.558 0 0 0-1.016.344c-.411.182-.713.5-.906.953-.099.25-.18.398-.242.445v.149c0 .208-.016.46-.047.757a8.358 8.358 0 0 0-.047.641c.026.531.125 1.018.297 1.46.057.183.107.358.148.524.146.12.271.237.375.352.11.114.222.221.336.32.115.094.266.175.453.242.302.11.836.185 1.602.227.12.005.226.013.32.023.349.032.641.055.875.07.302.016.524.04.664.071.141.026.232.078.274.156.041.073.067.196.078.367.01.24.031.493.062.758.026.23.042.45.047.664v.102c0 .094-.01.161-.031.203a.677.677 0 0 1-.383.18c-.161.02-.325.031-.492.031-.161 0-.307.008-.438.023a6.31 6.31 0 0 1-1.124.102Zm5.445.313h-.383l-.25-.126.125-.632v-.883c0-.125.464-.294 1.391-.508.333-.307.5-.643.5-1.008 0-.693-1.011-3.135-3.032-7.328-.166-.536-.25-.875-.25-1.015l.25-.126h1.266c.276.047.865 1.31 1.766 3.79.14 0 .479.59 1.015 1.773h.125c.219 0 .852-1.56 1.899-4.68 0-.536.461-.872 1.383-1.007.593.114.89.242.89.382-2.271 6.51-3.786 10.047-4.547 10.61-.593.505-1.31.758-2.148.758ZM204.663 22.003c-.408-.902-.693-1.47-.855-1.43-.163.04-.155.668.06 1.662.132.583.298 1.157.498 1.719.115.321.242.653.386.994l.232.524a1.229 1.229 0 0 0 .737.739.952.952 0 0 0 .517 0c.084-.025.167-.056.247-.095l.174-.088c.159-.083.316-.16.468-.236l.864-.469c.554-.303 1.04-.592 1.454-.86.802-.52 1.269-.902 1.183-1.067-.086-.166-.673-.025-1.579.29-.453.162-.981.37-1.565.61l-.852.378c.321-.51.588-1.05.796-1.612.258-.684.448-1.39.568-2.108.19-1.017.258-2.05.201-3.075a13.166 13.166 0 0 0-3.178-7.804 14.06 14.06 0 0 0-3.625-3.004 13.104 13.104 0 0 0-4.196-1.548 10.534 10.534 0 0 0-1.05-.134c-.174-.013-.341-.03-.533-.024-.192.005-.355-.005-.514.003a9.005 9.005 0 0 0-1.879.327c-1.027.27-2.011.69-2.918 1.248-1.513.958-2.133 1.902-2.058 1.964.075.063.841-.683 2.365-1.438a11.634 11.634 0 0 1 2.794-.978 8.752 8.752 0 0 1 1.734-.19c.149-.002.297.003.445.016.149.015.309.042.466.061.317.032.635.108.958.17a12.52 12.52 0 0 1 3.796 1.575 13.196 13.196 0 0 1 3.194 2.803 12.096 12.096 0 0 1 2.714 6.955c.1 1.568-.09 3.147-.562 4.66-.222.661-.41 1.167-.558 1.533l-.232-.494-.712-1.577"/></svg>