<svg xmlns="http://www.w3.org/2000/svg" width="26" height="54" fill="none"><path fill="#FC5B23" d="M14.693 3.636 4.142 9.624a1.348 1.348 0 0 0-.482 1.827 1.314 1.314 0 0 0 1.815.47L16.02 5.909a1.343 1.343 0 0 0 .363-1.746 1.31 1.31 0 0 0-1.69-.527ZM19.943 21.379l-11.107 1.49a1.355 1.355 0 0 0-1.294 1.366 1.314 1.314 0 0 0 1.354 1.283l11.095-1.477a1.392 1.392 0 0 0 1.306-1.38 1.332 1.332 0 0 0-1.354-1.282ZM24.168 36.766 13.19 34.513a1.356 1.356 0 0 0-1.673.864 1.314 1.314 0 0 0 .856 1.657l10.961 2.262a1.392 1.392 0 0 0 1.689-.872 1.331 1.331 0 0 0-.856-1.658ZM12.388 48.513 2.283 43.591a1.338 1.338 0 0 0-1.823.469 1.348 1.348 0 0 0 .465 1.806l10.053 4.936a1.374 1.374 0 0 0 1.823-.469 1.314 1.314 0 0 0-.465-1.806l.052-.014Z"/></svg>