<svg xmlns="http://www.w3.org/2000/svg" width="131" height="131" fill="none"><path fill="url(#a)" d="M59.75 5.893a8.033 8.033 0 0 1 11.5 0 8.033 8.033 0 0 0 9.234 1.628 8.033 8.033 0 0 1 10.806 3.933 8.033 8.033 0 0 0 8.12 4.689 8.033 8.033 0 0 1 8.809 7.391 8.032 8.032 0 0 0 6.027 7.183 8.033 8.033 0 0 1 5.75 9.959 8.033 8.033 0 0 0 3.207 8.811 8.034 8.034 0 0 1 1.997 11.325 8.03 8.03 0 0 0 0 9.376 8.034 8.034 0 0 1-1.997 11.325 8.033 8.033 0 0 0-3.207 8.811 8.034 8.034 0 0 1-5.75 9.959 8.032 8.032 0 0 0-6.027 7.183 8.032 8.032 0 0 1-8.809 7.391 8.032 8.032 0 0 0-8.12 4.689 8.033 8.033 0 0 1-10.806 3.933 8.032 8.032 0 0 0-9.234 1.628 8.033 8.033 0 0 1-11.5 0 8.032 8.032 0 0 0-9.234-1.628 8.033 8.033 0 0 1-10.806-3.933 8.032 8.032 0 0 0-8.12-4.689 8.032 8.032 0 0 1-8.809-7.391 8.033 8.033 0 0 0-6.027-7.183 8.033 8.033 0 0 1-5.75-9.959 8.033 8.033 0 0 0-3.207-8.811A8.033 8.033 0 0 1 5.8 70.188a8.033 8.033 0 0 0 0-9.376 8.033 8.033 0 0 1 1.997-11.325 8.033 8.033 0 0 0 3.207-8.811 8.033 8.033 0 0 1 5.75-9.959 8.033 8.033 0 0 0 6.027-7.183 8.033 8.033 0 0 1 8.809-7.391 8.033 8.033 0 0 0 8.12-4.689 8.033 8.033 0 0 1 10.806-3.933 8.033 8.033 0 0 0 9.234-1.628Z"/><path fill="#20305B" d="M108.647 70.284c.075-.808.331-1.6.77-2.38.138-.252.344-.523.618-.814.594-.636 1.247-.983 1.957-1.04a1.33 1.33 0 0 0 .286-.056c.304-.118.843-.157 1.618-.118.096.005.191.011.286.02.967.09 1.792.395 2.476.916.689.522 1.197 1.354 1.526 2.497.141.457.195.86.162 1.21l-.035.23c-.02.213-.008.409.035.586.012.12.012.237.002.35a9.182 9.182 0 0 1-.066.489 9.603 9.603 0 0 1-.118.675c-.045.239-.09.409-.136.51-.168.03-.368.041-.601.033a31.198 31.198 0 0 1-.476-.05.933.933 0 0 1-.56-.252.622.622 0 0 1 .003-.103c.009-.1.041-.245.095-.437.134-.45.218-.87.255-1.26.027-.3.015-.612-.037-.937l-.011-.029a4.852 4.852 0 0 0-.217-.912c-.126-.374-.378-.663-.758-.867-.209-.107-.332-.189-.368-.247l-.129-.012a6.494 6.494 0 0 1-.657-.102 7.401 7.401 0 0 0-.554-.093 4.066 4.066 0 0 0-1.297.14 7.838 7.838 0 0 1-.468.088 3.033 3.033 0 0 1-.337.298c-.108.086-.21.175-.306.267a1.34 1.34 0 0 0-.247.375c-.12.254-.229.713-.327 1.377-.015.104-.03.196-.047.277-.055.302-.099.554-.132.757a3.818 3.818 0 0 1-.115.573c-.034.12-.086.195-.158.225a.787.787 0 0 1-.326.039 9.076 9.076 0 0 0-.665-.007 6.581 6.581 0 0 1-.671-.021.428.428 0 0 1-.175-.044.588.588 0 0 1-.125-.348 3.469 3.469 0 0 1 .012-.431c.013-.141.018-.269.015-.384a5.528 5.528 0 0 1 .003-.988ZM107.978 74.546c.084-.293.151-.487.202-.582a.158.158 0 0 1 .154-.09c.071.001.17.02.297.056l.342.099c.122-.013.634.11 1.536.37.246.07.995.3 2.249.689.712.228 1.988.65 3.826 1.263.238.05.433.096.586.14.324.093.491.19.499.293a.65.65 0 0 1-.029.226l-.096.285-.04.138a9.824 9.824 0 0 0-.04.188 1.846 1.846 0 0 1-.031.133c-.031.11-.059.163-.082.161a.978.978 0 0 0-.014.174 8.533 8.533 0 0 1-.395 1.323c-.11.3-.27.786-.482 1.455l.005.009-.041.166c-.2.696-.339 1.1-.418 1.21a9.46 9.46 0 0 0-1.1-.43l-.173-.043a32.535 32.535 0 0 1-1.198-.387 97.137 97.137 0 0 0-3.368-.975 91.41 91.41 0 0 1-3.474-1.005c.001-.218.046-.482.136-.793a1.6 1.6 0 0 1 .225-.511c.292-.026.66.02 1.105.14.449.119.82.22 1.114.305.298.086.588.172.872.258.288.087.537.161.747.221l.283.082c.254.073 1.38.434 3.379 1.085l.179.044a.797.797 0 0 1 .117.04.41.41 0 0 0 .064.026c.043.013.073 0 .089-.038l.037-.153a.85.85 0 0 1 .025-.114c.078-.371.153-.746.224-1.124.15-.772.236-1.193.256-1.263.02-.07.026-.116.018-.137-.004-.02-.028-.037-.071-.05l-.055-.008-.092-.026c-.289-.064-.871-.203-1.744-.416l-.325-.08c-.285-.081-.58-.17-.884-.267a26.23 26.23 0 0 0-.804-.245 21.012 21.012 0 0 0-1.172-.302 7.794 7.794 0 0 1-1.101-.302 8.818 8.818 0 0 0-1.034-.29l-.12-.027c-.184-.053-.279-.15-.287-.289-.013-.136.022-.347.104-.632ZM104.661 84.369l.101-.21c.081-.168.245-.489.493-.961l.012.006.278-.594.199-.428c.146-.304.29-.571.431-.802.193.073.596.244 1.209.514 1.166.51 2.188.977 3.067 1.4 1.137.547 1.767.894 1.89 1.038.159.037.403.134.732.292.575.277 1.145.579 1.71.907.048.154-.104.594-.454 1.321-.146.304-.308.626-.486.965a8.844 8.844 0 0 0-.439.911 6.981 6.981 0 0 1-.207.477c-.206.427-.44.793-.702 1.096a2.746 2.746 0 0 1-.649-.228 1.837 1.837 0 0 1-.283-.167c-.134-.1-.177-.202-.127-.304l.617-1.266.62-1.257c.191-.398.316-.667.373-.807l-.465-.231-.389-.187-.385-.193a21.856 21.856 0 0 0-.961-.493 3.68 3.68 0 0 0-.326-.142c-.067.044-.268.415-.604 1.113-.206.427-.413.838-.624 1.233-.21.394-.389.652-.538.772a3.176 3.176 0 0 1-.701-.216c-.184-.088-.29-.19-.316-.304-.042-.186.074-.563.347-1.13l.151-.299.314-.668.505-1.176-1.855-.953c-.253.348-.651 1.085-1.192 2.21-.388.805-.618 1.225-.691 1.261a1.416 1.416 0 0 1-.58-.165c-.21-.101-.39-.21-.54-.329-.153-.114-.221-.235-.204-.363.014-.105.049-.214.105-.33l.133-.276.431-1.037ZM111.17 93.072l-.934 1.324-.211.11-6.386-4.763-.93 1.318.089.063c1.177.83 2.27 1.646 3.278 2.446a63.286 63.286 0 0 1 3.141 2.081l-.033.237-.807 1.145c-.103.106-.203.125-.3.056l-6.424-4.53c-.364.445-.647.597-.848.455-1.097-.935-1.58-1.496-1.449-1.682l.623-.883c.081-.115.18-.132.295-.051l.531.374c.554-.785 1.04-1.41 1.456-1.875.256-.489.577-1.007.963-1.555l.236.033c1.028.725 2.063 1.5 3.105 2.323a146.634 146.634 0 0 1 4.638 3.138l-.033.236ZM98.63 93.899a.873.873 0 0 1 .17-.13c.062-.034.142-.011.242.07a3.5 3.5 0 0 0 .397.53l.192.233c.157.16.31.312.461.458a55.06 55.06 0 0 1 2.749 2.867 50.137 50.137 0 0 0 1.793 1.937c.343.347.639.628.888.843l-.049.106a.2.2 0 0 0-.044.053.056.056 0 0 1-.009.019c.012.013-.017.054-.088.125a2.583 2.583 0 0 0-.234.249 1.14 1.14 0 0 1-.102.121.893.893 0 0 1-.219.148l-.107.067-.112.11c-.045.045-.1.09-.165.134l-.158-.18a9.871 9.871 0 0 0-.935-1.084l-.519-.507a13.29 13.29 0 0 1-.666-.725l-1.064-1.284c-.006-.006-.01-.013-.009-.02l-.01-.019a.928.928 0 0 1-.211-.166c-.116-.117-.434-.491-.954-1.123.038.103.107.278.209.523l.826 2.008c.364.895.543 1.388.536 1.478.079.133.152.294.218.485.057.148.141.344.252.587.14.291.211.489.214.596l.019.019c.054.055.123.17.205.345.092.191.125.299.099.324l-.005.005c.07.11.112.22.124.33a.325.325 0 0 1-.099.289l-.024.024c-.166.183-.385.408-.658.677a2.4 2.4 0 0 1-.243.221l-.446-.463c-.055-.023-.271-.226-.649-.609a55.977 55.977 0 0 1-.427-.443 24.664 24.664 0 0 1-.537-.584 3.638 3.638 0 0 1-.292-.336l-.403-.389a23.503 23.503 0 0 1-1.354-1.276 61.53 61.53 0 0 1-1.296-1.354l-.441-.448c-.448-.454-.723-.781-.824-.982.035-.042.068-.087.097-.135.03-.041.091-.115.186-.22l.268-.284c.078-.077.155-.14.233-.192.12-.073.236-.053.348.06l.024.025c.182.211.56.62 1.132 1.227l1.851 1.966c.313.331.699.754 1.156 1.27-.06-.203-.167-.514-.322-.93-.392-1.06-.685-1.757-.88-2.09a14.577 14.577 0 0 1-.275-.602c-.197-.452-.301-.727-.313-.824l-.176-.48c-.237-.63-.374-.974-.413-1.032a.563.563 0 0 0-.066-.223.735.735 0 0 1-.056-.3c-.022-.074.053-.196.225-.366.091-.09.189-.179.292-.268l.18-.168c.05-.048.087-.088.113-.12.048-.061.1-.119.156-.173ZM93.625 103.865l-1.27.914c-.045.032-.063.055-.052.07l.035.026c.528.453.91.815 1.143 1.085.335.367.594.566.778.599l-.114-.413a9.487 9.487 0 0 0-.248-.927l-.076-.431c-.074-.455-.139-.762-.196-.923Zm-1.215-4.24.034-.023c.071-.05.27-.167.597-.351.353-.203.556-.306.61-.31a.353.353 0 0 1 .104.102c.102.146.227.511.376 1.097.054.213.1.375.14.486.052.131.118.313.198.546.2.595.287.998.263 1.21.05.081.112.224.184.43.135.4.24.769.315 1.106.138.571.307 1.392.507 2.465.236 1.259.323 1.952.261 2.078.08.289.089.528.026.717-.22-.013-.57-.206-1.047-.578a2.212 2.212 0 0 1-.38-.352c-.137-.037-.379-.184-.726-.442a3 3 0 0 0-.55-.357 19.625 19.625 0 0 0-.577-.431l-1.947-1.458c-1.912-1.437-2.914-2.221-3.006-2.352l-.004-.006a.431.431 0 0 1 .108-.25.724.724 0 0 1 .116-.098c.026-.018.059-.039.099-.061a.685.685 0 0 0 .125-.071l.205-.16a1.77 1.77 0 0 1 .16-.129c.105-.073.216-.126.333-.157.231.077.753.452 1.563 1.125.365.306.656.531.873.674.075-.058.148-.121.22-.187.066-.063.148-.129.245-.197l.062-.043c.073-.046.168-.109.283-.19.322-.225.688-.532 1.1-.92-.063-.417-.263-1.12-.6-2.109l-.27-.803Z"/><path fill="#20305B" d="M88.05 102.681a.32.32 0 0 1 .092-.031.64.64 0 0 0 .082-.033.073.073 0 0 0 .031-.03l.1.263c.046.135.19.445.43.931.032.096.04.168.024.217-.053.067-.18.155-.38.265l-.209.133c-.208.124-.372.368-.492.732.002.045 0 .099-.003.162-.103.697.136 1.687.716 2.971.27.609.477 1.145.62 1.608.143.463.216.734.22.814.143.239.273.475.388.708.156.314.287.625.394.934l.133.33-.306.152a.712.712 0 0 0-.117.073.93.93 0 0 1-.14.085l-.071.042c-.225.112-.511.251-.86.419-.348.172-.647.317-.898.437l-.527.26-.26.137a1.48 1.48 0 0 1-.288.112c-.088.028-.187.07-.297.124a86.706 86.706 0 0 1-2.294-4.326l-.364-.735a76.63 76.63 0 0 0-.64-1.216 57.451 57.451 0 0 1-.802-1.541 9.092 9.092 0 0 0-.415-.763l1.403-.694.436.867c.063.126.178.344.346.652.405.746.637 1.178.695 1.296.055.11.103.218.146.325.058.149.125.299.2.45l.112.211c.085.172.16.35.227.536.067.186.137.354.212.505l1.39 2.424.01.003.089-.036c.183-.071.339-.137.465-.2l.074-.036c.128-.079.297-.176.505-.289-.153-.402-.227-.607-.22-.615l-.578-1.522a25.572 25.572 0 0 1-.614-1.748 7.659 7.659 0 0 0-.18-.658 8.048 8.048 0 0 1-.386-1.579c-.046-.74.034-1.313.24-1.72.102-.224.23-.417.384-.58.151-.156.266-.253.343-.292.078-.099.326-.26.745-.483.04-.02.07-.037.089-.051ZM80.79 106.258a7.599 7.599 0 0 1 1.041-.246c.18.411.508 1.376.982 2.894.478 1.532.744 2.475.797 2.831.112.204.204.421.275.652.074.234.142.523.206.866l.066.302c.057.183.123.372.199.568.062.138.114.275.156.41.08.256.128.502.144.735l-.863.241a1.146 1.146 0 0 1-.205.078c-.16.05-.303.069-.427.055-.122-.01-.222-.139-.3-.387a9.934 9.934 0 0 1-.191-.706 11.87 11.87 0 0 0-.145-.556c-.147-.47-.268-.957-.363-1.462-.059-.278-.12-.555-.188-.83-.298.069-.66.113-1.083.131-.427.023-.783 0-1.067-.069a1.426 1.426 0 0 1-.461-.078 1.572 1.572 0 0 1-.417-.256 2.373 2.373 0 0 1-.462-.472 4.433 4.433 0 0 1-.22-.454 5.655 5.655 0 0 1-.268-.697c-.056-.178-.067-.292-.035-.34-.04-.131-.044-.325-.01-.584.03-.253.09-.493.176-.721.084-.222.186-.354.306-.396.072-.228.35-.499.835-.812.423-.28.931-.513 1.523-.697Zm-.31 1.457a3.17 3.17 0 0 0-.727.335c-.16.112-.277.215-.348.309-.07.098-.13.202-.18.314l-.07.143c.02.084.038.17.05.257.013.115.04.245.08.39.084.27.216.501.395.693.335.354.867.417 1.598.189.118-.037.231-.079.34-.128a2.107 2.107 0 0 0-.077-.362 1.471 1.471 0 0 0-.104-.24l-.395-1.588-.15-.412c-.14.025-.278.058-.413.1ZM70.76 108.622l.094-.013a.722.722 0 0 1 .22-.009l.144.043.847 3.955.292-.033c.18-.024.34-.057.476-.099.217-.062.384-.1.502-.116.185-.025.394-.042.628-.051l.526-.037a43.196 43.196 0 0 0-.102-.952 34.445 34.445 0 0 1-.173-2.039 3.308 3.308 0 0 0-.023-.218l-.079-.479a2.474 2.474 0 0 1-.025-.39c.12.003.257-.007.41-.028l.237-.039a2.68 2.68 0 0 1 .302-.061.59.59 0 0 1 .2.007c.091.024.158.195.201.511.022.158.038.363.049.614.397 2.25.618 3.526.664 3.828.136.865.25 1.636.341 2.313.125.917.172 1.435.142 1.554l.058.427c.022.158.013.262-.026.314-.044.052-.276.106-.696.163-.261.036-.454.041-.577.016-.142-.031-.226-.144-.253-.338l-.013-.102a8.394 8.394 0 0 0-.138-1.064l-.063-.412a9.198 9.198 0 0 1-.068-.708 11.683 11.683 0 0 0-.194-1.478c-.551.038-1.098.094-1.64.167-.243.033-.489.071-.736.114.013.132.031.283.055.455l.087.595c.044.252.083.506.118.764.046.338.094.746.145 1.222.051.48.046.863-.017 1.147a1.14 1.14 0 0 1-.45.144 2.353 2.353 0 0 1-.675.002l-.48-2.971a30.115 30.115 0 0 1-.371-2.129 14.858 14.858 0 0 1-.09-.823c-.081-.085-.18-.454-.296-1.105a30.502 30.502 0 0 1-.113-.736 2.123 2.123 0 0 1-.02-.301 5.846 5.846 0 0 0-.02-.301 4.749 4.749 0 0 0-.12-.57 5.29 5.29 0 0 1-.072-.328l-.064-.219c.125-.063.41-.132.855-.206ZM64.365 110.459c-1.11-.065-1.777.41-2 1.424-.027.149-.062.316-.104.501-.118.527-.183.902-.196 1.125-.077 1.333.29 2.576 1.099 3.727a.8.8 0 0 1 .207.088.603.603 0 0 0 .29.092 1.12 1.12 0 0 0 .33-.05c.41-.117.675-.218.799-.302.327-.292.6-.753.82-1.384.219-.631.34-1.163.366-1.595l.037-.765c.024-.409.06-.797.109-1.164-.04-.034-.116-.201-.231-.5-.13-.368-.243-.619-.34-.752-.171-.202-.487-.341-.948-.418a2.02 2.02 0 0 0-.238-.027Zm.75-1.717c.919.053 1.595.444 2.027 1.172.14.25.28.644.418 1.182.138.537.233 1.065.285 1.584.019.22.024.412.014.576-.012.219-.052.383-.117.493.008.083.01.179.003.288-.014.241-.075.596-.184 1.064-.11.469-.27.959-.483 1.472-.217.512-.432.835-.645.969-.123.308-.457.599-1.002.873-.546.279-1.064.429-1.553.451l-.377.006a3.501 3.501 0 0 1-.356 0 1.074 1.074 0 0 1-.31-.087 4.226 4.226 0 0 1-.821-.485c-.38-.287-.592-.512-.632-.674-.17-.142-.307-.371-.412-.688a8.504 8.504 0 0 1-.264-.892c-.066-.277-.118-.443-.156-.495a11.699 11.699 0 0 0-.103-.698c-.096-.48-.131-.97-.107-1.471.014-.072.032-.151.055-.236a3.97 3.97 0 0 0 .053-.203.684.684 0 0 0-.01-.199.583.583 0 0 1-.03-.187c.015-.177.06-.35.133-.519.038-.098.071-.195.1-.289.123-.486.352-.97.686-1.453.33-.483.726-.825 1.19-1.026.37-.239.86-.398 1.472-.477.41-.054.784-.071 1.126-.051ZM55.482 107.693l.226.054c.181.044.529.138 1.043.282l-.003.013.639.148.46.105c.328.079.619.164.874.254-.03.203-.114.633-.25 1.29a95.74 95.74 0 0 1-.728 3.291c-.298 1.227-.505 1.915-.62 2.065-.003.164-.047.423-.133.777-.15.62-.327 1.241-.53 1.862-.14.079-.603.023-1.387-.167a30.49 30.49 0 0 1-1.044-.275 8.973 8.973 0 0 0-.984-.239 6.362 6.362 0 0 1-.51-.102 4.921 4.921 0 0 1-1.218-.458 2.73 2.73 0 0 1 .192-.994c.07-.152.16-.215.27-.188l1.368.339 1.358.344c.43.104.719.169.867.196l.13-.503.1-.419.11-.417c.105-.358.199-.706.28-1.043a3.79 3.79 0 0 0 .07-.348c-.056-.056-.46-.176-1.214-.358-.46-.112-.905-.23-1.335-.353-.43-.123-.72-.244-.868-.365-.001-.305.02-.548.064-.73.049-.199.126-.324.232-.373.174-.08.566-.045 1.178.103l.324.086.719.167 1.255.248.544-2.013c-.393-.175-1.197-.41-2.41-.705-.868-.21-1.327-.347-1.377-.411a1.417 1.417 0 0 1 .04-.602c.055-.226.124-.425.208-.597.08-.173.184-.265.313-.276.105-.007.22.004.344.034l.299.073 1.104.205ZM49.036 105.571c.273.139.45.242.533.31a.157.157 0 0 1 .06.168 1.26 1.26 0 0 1-.112.281l-.161.316c-.011.123-.23.602-.656 1.439-.115.227-.483.92-1.103 2.077a398.2 398.2 0 0 1-1.966 3.517 8.338 8.338 0 0 1-.249.548c-.153.301-.28.446-.382.435a.688.688 0 0 1-.217-.072l-.261-.149-.128-.065a5.955 5.955 0 0 0-.177-.074 2.331 2.331 0 0 1-.125-.056c-.102-.052-.15-.089-.143-.111a.863.863 0 0 0-.168-.047 8.955 8.955 0 0 1-1.224-.639c-.274-.165-.72-.415-1.337-.749l-.01.003-.154-.072c-.646-.329-1.016-.542-1.109-.641.303-.434.513-.766.631-.998l.075-.161a31.8 31.8 0 0 1 .607-1.103c.324-.607.629-1.191.914-1.751.24-.471.467-.928.682-1.371a106.579 106.579 0 0 1 1.647-3.22c.214.043.465.137.753.284.211.107.364.214.46.318-.031.291-.147.644-.348 1.059a62.01 62.01 0 0 1-.93 1.842c-.14.266-.26.497-.36.692l-.133.262c-.12.235-.689 1.273-1.707 3.112l-.077.168a.824.824 0 0 1-.062.106.512.512 0 0 0-.037.058c-.02.041-.014.072.02.095l.144.065c.03.011.066.026.106.047.35.147.703.291 1.061.432.73.295 1.127.459 1.192.492.065.033.109.048.131.044.02 0 .041-.02.062-.061l.018-.052.044-.085c.118-.272.364-.817.74-1.634l.139-.304c.134-.264.278-.536.43-.816.137-.248.268-.496.394-.744.188-.369.361-.734.519-1.093a7.6 7.6 0 0 1 .505-1.024 8.765 8.765 0 0 0 .481-.96l.05-.112c.087-.171.2-.247.338-.227.136.013.336.087.6.221ZM37.746 106.219c-1.026-.667-1.767-.716-2.223-.146-.252.358-.287.739-.105 1.143.075.135.203.306.385.511.183.205.327.347.432.427l.557-.754c.298-.397.616-.791.954-1.181Zm4.223-4.309.071.053c.183.137.328.285.435.446a15.111 15.111 0 0 1-1.15 1.761c-.336.448-.713.909-1.13 1.382-.436.505-.807.961-1.113 1.37l-.637.906-.123.164c-.353.471-.573.707-.66.71a1.704 1.704 0 0 1-.137.205c-.044.058-.116.15-.215.275-.103.122-.23.269-.382.44a3.915 3.915 0 0 1-.341.342c-.169-.019-.4-.137-.69-.356a8.683 8.683 0 0 1-1.234-1.147c-.336-.372-.546-.677-.629-.916a8.553 8.553 0 0 1-.188-.637c-.025-.149.01-.433.108-.85.07-.238.206-.492.408-.762l.186-.236c.116-.147.277-.26.484-.338.195-.184.474-.343.836-.476.361-.133.675-.183.94-.149.68.128 1.319.38 1.92.756.133-.117.344-.334.634-.652.6-.655 1.051-1.185 1.355-1.59l.126-.179a6.01 6.01 0 0 1 .198-.253l.062-.082c.106-.142.186-.299.24-.469.194.037.403.131.626.282ZM34.647 95.733l.161.167c.13.135.373.4.73.797l-.01.01.46.467.333.334c.234.243.435.47.602.684-.135.155-.436.473-.902.955a95.67 95.67 0 0 1-2.379 2.388c-.909.877-1.452 1.347-1.63 1.411-.09.137-.266.332-.529.585-.459.443-.94.873-1.444 1.289-.161-.009-.522-.304-1.082-.885-.234-.243-.479-.506-.735-.792a9.456 9.456 0 0 0-.702-.728 6.366 6.366 0 0 1-.375-.36 4.927 4.927 0 0 1-.784-1.039 2.706 2.706 0 0 1 .695-.736c.14-.091.25-.096.33-.014l.972 1.019.963 1.018c.306.318.515.528.626.63l.38-.356.31-.299.314-.294c.282-.246.547-.489.796-.73.105-.101.187-.186.247-.256-.018-.078-.296-.396-.834-.953-.329-.341-.642-.68-.939-1.013-.297-.334-.476-.592-.537-.774a3.17 3.17 0 0 1 .446-.582c.148-.142.28-.206.395-.19.19.025.503.265.94.718l.227.245.517.527.927.882 1.539-1.408c-.239-.359-.791-.987-1.658-1.886-.62-.643-.934-1.005-.942-1.086.07-.17.19-.331.356-.486.168-.162.333-.293.496-.393.16-.103.297-.125.412-.065.093.05.183.121.272.213l.213.222.823.764ZM28.808 91.07l-.582.385c-.083.057-.308.22-.675.49-.134.087-.27.166-.408.24a4.34 4.34 0 0 0-.42.256l-.068.046c-.196.135-.41.26-.645.378-.202.1-.384.206-.545.318a2.826 2.826 0 0 0-.223.17l-1.937 1.442-.002.01c.088.166.193.34.317.52l.047.068.153.185c.363-.212.552-.314.568-.308l1.423-.79a22.86 22.86 0 0 1 1.64-.848c.152-.06.36-.153.622-.279.717-.372 1.33-.595 1.838-.669l-.205-.298.006-.004a46.591 46.591 0 0 1-.46-.655l-.444-.657Zm1.35-2.45c.065.094.108.173.13.236.028.09-.006.17-.104.236a3.277 3.277 0 0 1-.312.174l-.308.154.225.327c.075.109.149.224.221.346.03.05.132.21.305.478.194.282.365.535.514.758.15.218.243.348.277.39.078.097.18.234.308.411l.461.645.146-.125c.165-.147.292-.251.382-.313.102-.07.193-.074.273-.014.051.043.11.11.174.204l.187.295.106.143.24.383c-.122.105-.252.222-.39.35a5.374 5.374 0 0 1-.415.362 4.646 4.646 0 0 1-.81.691l-.262.188c-.07-.101-.143-.2-.22-.296a4.142 4.142 0 0 1-.142-.193l-.093-.136a1.512 1.512 0 0 0-.587-.201 1.508 1.508 0 0 1-.16.02c-.705-.002-1.65.376-2.839 1.133-.56.359-1.058.64-1.492.846-.441.204-.7.314-.779.329-.223.181-.447.35-.673.505a8.499 8.499 0 0 1-.836.51l-.312.173-.194-.282a.76.76 0 0 0-.088-.104.92.92 0 0 1-.105-.128l-.386-.572a42.571 42.571 0 0 1-.576-.873l-.336-.475c-.178-.259-.284-.429-.319-.51a2.201 2.201 0 0 0-.165-.277 90.62 90.62 0 0 1 4.704-3.233l.393-.262.735-.523c.184-.127.372-.25.565-.373l.068-.046c.086-.06.168-.125.247-.195l-.2-.303-.134-.206a4.84 4.84 0 0 0-.198-.312l.276-.165a4.73 4.73 0 0 1 .954-.483c.06-.042.384-.198.971-.47l.27.354.193.282.11.148ZM28.233 87.235a.35.35 0 0 1 .028.092c.009.031.02.059.03.084a.074.074 0 0 0 .03.031l-.266.093c-.135.043-.45.178-.941.406-.097.03-.17.036-.218.018-.066-.055-.15-.184-.255-.387l-.128-.212c-.118-.211-.357-.381-.719-.51-.044 0-.098-.002-.161-.008-.694-.121-1.69.092-2.99.638-.615.255-1.156.448-1.622.578-.467.131-.74.197-.82.2-.243.137-.482.26-.718.37-.318.147-.633.27-.943.368l-.334.125-.144-.31a.768.768 0 0 0-.07-.119.918.918 0 0 1-.081-.143l-.041-.071a84.862 84.862 0 0 1-.396-.871c-.163-.352-.3-.655-.413-.909l-.247-.533-.13-.264a1.515 1.515 0 0 1-.104-.291 2.183 2.183 0 0 0-.117-.3 87.22 87.22 0 0 1 4.384-2.181l.745-.345c.312-.15.723-.352 1.232-.608.64-.322 1.16-.575 1.561-.76.319-.148.576-.28.774-.397l.658 1.42-.878.415c-.129.06-.35.169-.662.329a73.66 73.66 0 0 1-1.313.66 4.516 4.516 0 0 1-.329.138c-.15.055-.302.117-.455.188l-.214.107a5.02 5.02 0 0 1-.542.213 4.74 4.74 0 0 0-.51.199l-2.46 1.327-.003.009.034.09c.066.185.129.342.188.47l.035.075c.075.13.167.301.275.512.406-.142.613-.21.62-.204l1.537-.538a25.547 25.547 0 0 1 1.763-.568c.162-.03.383-.085.663-.164a8.042 8.042 0 0 1 1.588-.344c.741-.027 1.312.068 1.714.284.22.109.41.242.569.4.152.155.246.272.283.35.097.08.252.333.463.757.02.042.036.072.05.09ZM22.738 78.32c-.278-1.076-.934-1.565-1.968-1.467-.15.02-.32.038-.509.054-.538.05-.915.103-1.13.159-1.294.334-2.364 1.063-3.213 2.186a.821.821 0 0 1-.02.225.6.6 0 0 0 .002.303c.02.08.07.18.148.3.237.353.415.576.533.668.377.222.9.34 1.568.356.668.016 1.211-.03 1.63-.14l.74-.198c.397-.102.777-.187 1.142-.253.02-.047.155-.172.404-.373.311-.236.515-.42.613-.554.14-.224.175-.568.107-1.03a2.163 2.163 0 0 0-.047-.235Zm1.864.19c.23.89.066 1.653-.495 2.288-.195.21-.527.464-.997.76-.47.295-.943.547-1.421.755-.204.086-.385.15-.544.19-.212.055-.38.069-.505.04a1.765 1.765 0 0 1-.273.091c-.234.061-.59.111-1.07.15-.48.04-.996.037-1.549-.008-.554-.05-.927-.156-1.12-.318-.33-.022-.71-.251-1.138-.687-.433-.434-.734-.88-.905-1.34l-.12-.357a3.623 3.623 0 0 1-.11-.34c-.019-.093-.023-.2-.012-.32.028-.29.099-.6.211-.931.157-.45.306-.72.448-.808.083-.205.26-.406.529-.603a8.6 8.6 0 0 1 .768-.524c.244-.148.385-.248.424-.3.214-.098.425-.202.632-.312a6.015 6.015 0 0 1 1.368-.552c.073-.01.154-.016.242-.02.084-.003.154-.007.209-.012a.686.686 0 0 0 .187-.07.584.584 0 0 1 .168-.085c.173-.04.352-.051.535-.033.105.006.207.008.306.006.5-.03 1.031.04 1.593.21.56.165 1.008.437 1.341.817.341.28.642.698.905 1.256a6 6 0 0 1 .393 1.056ZM22.735 68.876l-.093.516c-.186.038-.498.063-.935.077l-.17.005a9.35 9.35 0 0 0-.738.043 3.73 3.73 0 0 1-.307.023 1.117 1.117 0 0 0-.17.02c-.119.012-.451.027-.998.044.205.135.669.378 1.39.73.32.154.596.3.828.44.14.086.284.168.432.246.37.18.608.28.714.3.078.033.118.06.118.078a.378.378 0 0 1-.011.075c-.046.134-.065.33-.057.59a4.013 4.013 0 0 0 .041.45 1.718 1.718 0 0 1 .013.417c-.002.082-.046.207-.132.373a.692.692 0 0 1-.358-.091 2.702 2.702 0 0 1-.315-.21 1.971 1.971 0 0 0-.453-.272 1.349 1.349 0 0 1-.419-.275c-.382-.138-.85-.388-1.404-.75a14.07 14.07 0 0 0-.836-.5c-.26-.147-.468-.225-.623-.234-.157.096-.988.48-2.495 1.15-1.592.715-2.495 1.092-2.708 1.13a9.961 9.961 0 0 1-.041-.682c-.02-.633-.021-.982-.005-1.046.281-.187.733-.385 1.356-.596.262-.09.534-.195.818-.313.225-.093.448-.18.669-.26.387-.149.868-.378 1.442-.687l-.805.045a66.81 66.81 0 0 1-1.427.085c-.66.02-1.33-.004-2.006-.075-.103-.224-.16-.505-.17-.842-.008-.25.027-.453.104-.605.072-.048.551-.106 1.438-.175.396-.026.803-.045 1.223-.058a4.13 4.13 0 0 1 .492.005l1.106-.082c-.634-.29-1.133-.494-1.497-.61-.225-.07-.453-.146-.684-.225-.29-.1-.569-.188-.835-.262-.635-.18-1.099-.353-1.39-.517-.021-.073-.041-.423-.06-1.052a9.645 9.645 0 0 1-.001-.677c.22.02 1.143.343 2.772.968 1.579.612 2.432.95 2.562 1.015.155-.019.357-.107.608-.265.25-.158.518-.34.803-.545.53-.395.983-.673 1.356-.835.093-.103.226-.2.401-.293.175-.092.32-.192.436-.3a2.18 2.18 0 0 1 .3-.222.742.742 0 0 1 .352-.12 1.225 1.225 0 0 1 .169.788 3.357 3.357 0 0 0-.014.452c.004.136.015.257.032.361.021.1.04.172.054.218.015.04.023.067.023.08 0 .02-.037.048-.113.086-.104.026-.336.138-.694.337a6.584 6.584 0 0 0-.416.272c-.187.13-.454.29-.799.483-.57.319-.983.564-1.242.736.214.007.35.024.405.05l.184-.02a.83.83 0 0 1 .15-.018c.05.003.105.019.165.05.509-.067.825-.102.948-.105h.198c.096.006.21.007.342.003l.348-.017c.246-.008.415.005.508.039.055.167.085.323.09.469l-.006.274a2 2 0 0 0 .037.313ZM23.118 58.495l-.04.229c-.03.184-.1.537-.208 1.06l-.014-.002-.104.648-.072.466a9.07 9.07 0 0 1-.194.889c-.205-.017-.64-.07-1.304-.16a95.564 95.564 0 0 1-3.334-.501c-1.244-.213-1.945-.372-2.103-.478-.163.01-.424-.017-.784-.078-.629-.108-1.26-.241-1.894-.4-.088-.136-.064-.6.072-1.396.057-.332.125-.686.203-1.061a9.396 9.396 0 0 0 .17-.997c.016-.178.039-.35.067-.516.08-.467.204-.883.373-1.247a2.72 2.72 0 0 1 1.005.123c.157.06.225.145.206.257l-.244 1.387-.25 1.38c-.074.435-.12.728-.136.878l.511.094.425.072.423.08c.365.08.718.15 1.06.209.144.024.261.04.353.046.052-.06.143-.472.273-1.236.08-.467.167-.92.26-1.356.093-.438.195-.735.305-.892.304-.021.549-.017.733.015.202.034.331.103.388.205.091.168.084.562-.022 1.182l-.063.33-.118.728-.162 1.27 2.046.404c.148-.404.327-1.222.538-2.453.15-.88.256-1.348.316-1.402.178-.044.38-.044.603-.001.23.04.432.095.61.167.178.067.277.165.296.293.015.104.011.22-.01.345l-.052.303-.128 1.116ZM25.16 50.796l-.032.09a.7.7 0 0 1-.092.2l-.103.109-3.909-1.041-.103.275a3.07 3.07 0 0 0-.128.47 3.918 3.918 0 0 1-.124.499c-.062.176-.142.37-.24.582l-.206.486c.33.13.629.244.894.342.548.2 1.18.458 1.896.771.063.027.13.053.204.079l.463.147c.137.048.257.1.358.154-.056.106-.11.232-.16.379l-.073.228a2.73 2.73 0 0 1-.083.297.582.582 0 0 1-.097.176c-.063.07-.245.052-.547-.054a7.065 7.065 0 0 1-.569-.235 322.42 322.42 0 0 1-3.712-1.146c-.832-.272-1.571-.52-2.216-.746-.874-.306-1.357-.499-1.45-.58l-.406-.141c-.15-.053-.24-.108-.267-.166-.027-.063.03-.294.17-.694.087-.25.17-.424.247-.522.093-.112.232-.136.416-.072l.097.034a8.451 8.451 0 0 0 1.011.361l.396.131c.228.08.449.167.662.26a11.751 11.751 0 0 0 1.404.5c.217-.51.415-1.022.596-1.538.081-.232.159-.468.233-.708a13.41 13.41 0 0 0-.43-.157l-.57-.193a21.445 21.445 0 0 1-.734-.242 44.206 44.206 0 0 1-1.154-.425c-.452-.173-.79-.351-1.015-.536-.011-.134.014-.29.076-.466.082-.237.184-.438.305-.603l2.864.922c.736.2 1.425.411 2.066.636.293.102.55.2.774.292.113-.033.486.047 1.119.24.317.1.553.178.707.232.1.035.192.074.277.119.088.04.18.08.278.118.159.056.346.107.562.154.12.027.229.056.325.084l.224.042c0 .14-.069.425-.205.856ZM26.294 47.63a.872.872 0 0 1-.129.171c-.05.05-.133.05-.251-.001a3.496 3.496 0 0 0-.526-.403l-.247-.173c-.194-.11-.383-.216-.568-.316a54.35 54.35 0 0 1-3.422-2.017 49.751 49.751 0 0 0-2.25-1.38 15.184 15.184 0 0 0-1.083-.57l.018-.116a.201.201 0 0 0 .028-.063c0-.01.002-.017.005-.021-.016-.009 0-.057.05-.144.088-.154.141-.256.158-.304.02-.052.041-.1.066-.143a.878.878 0 0 1 .17-.202l.085-.093.078-.137c.032-.055.073-.113.123-.174l.201.131c.344.27.742.534 1.193.792l.636.347c.301.172.58.344.838.518l1.372.948a5.255 5.255 0 0 0 .029.032.946.946 0 0 1 .248.103c.142.081.55.356 1.222.824-.065-.09-.179-.239-.343-.448l-1.338-1.709c-.593-.763-.898-1.19-.916-1.278a2.62 2.62 0 0 1-.341-.408 10.558 10.558 0 0 0-.402-.497c-.213-.242-.335-.414-.366-.516l-.024-.014c-.067-.038-.164-.13-.29-.276-.14-.159-.202-.254-.184-.286l.003-.005a.77.77 0 0 1-.207-.284.325.325 0 0 1 .017-.306l.017-.03c.11-.22.26-.496.45-.829.085-.15.143-.243.174-.278l.555.325c.058.007.321.144.788.41.13.075.308.179.531.312.224.133.448.272.675.417.225.139.35.22.373.244l.493.266c.517.243 1.067.53 1.649.862.581.333 1.12.65 1.613.953l.546.312c.554.316.907.557 1.059.723-.023.05-.042.102-.058.156a3.02 3.02 0 0 1-.118.263l-.182.345a1.532 1.532 0 0 1-.172.248c-.096.102-.213.114-.352.035l-.03-.017a47.572 47.572 0 0 0-1.42-.874l-2.315-1.393a53.87 53.87 0 0 1-1.456-.91c.113.18.3.45.562.809.663.914 1.134 1.506 1.411 1.774.037.037.18.205.428.505.312.382.487.618.525.708l.298.415c.399.542.625.836.677.882a.563.563 0 0 0 .124.197c.076.106.12.197.135.274.041.065.002.203-.118.413-.063.11-.133.223-.208.337l-.128.21a1.56 1.56 0 0 0-.076.146c-.03.072-.065.142-.103.209ZM32.09 38.607l-.147.18c-.118.145-.352.418-.703.82l-.01-.008-.41.513-.293.37a9.039 9.039 0 0 1-.606.679c-.17-.116-.522-.376-1.056-.782a95.31 95.31 0 0 1-2.656-2.075c-.979-.797-1.51-1.28-1.596-1.45-.147-.072-.362-.224-.644-.454-.495-.403-.98-.83-1.453-1.28-.01-.161.24-.554.75-1.18.213-.261.445-.536.698-.824a9.339 9.339 0 0 0 .639-.785c.101-.146.205-.285.312-.415.3-.368.612-.669.938-.903a2.722 2.722 0 0 1 .814.602c.107.128.125.237.053.325l-.895 1.088-.895 1.077c-.28.343-.463.576-.551.698l.398.334.334.271.33.278c.278.25.552.484.82.703.113.092.208.164.284.214.075-.027.357-.34.847-.942.299-.367.597-.718.893-1.053.296-.335.53-.543.704-.626.276.13.486.255.63.373.16.13.239.253.238.37-.003.19-.204.53-.6 1.018l-.218.255-.46.577-.766 1.026 1.582 1.359c.328-.28.886-.904 1.675-1.872.564-.692.886-1.047.965-1.065.177.05.352.148.526.296.18.147.33.295.448.445.122.146.16.28.114.401a1.125 1.125 0 0 1-.178.295l-.195.239-.66.908ZM38.204 30.408l-.415-.56c-.062-.08-.237-.295-.527-.647a5.352 5.352 0 0 1-.261-.394 4.325 4.325 0 0 0-.28-.406l-.05-.065a5.368 5.368 0 0 1-.412-.623 4.454 4.454 0 0 0-.347-.527 2.816 2.816 0 0 0-.182-.213l-1.546-1.855-.01-.002c-.162.097-.33.212-.502.346l-.065.05-.177.162c.231.352.344.535.34.55l.866 1.378c.322.5.634 1.03.936 1.592.069.149.173.35.313.605.41.696.667 1.296.768 1.8l.287-.222.004.005c.206-.165.416-.33.629-.494l.631-.48Zm2.52 1.214c-.09.07-.166.117-.227.142-.09.034-.17.004-.242-.09a3.278 3.278 0 0 1-.19-.302l-.172-.3-.314.243c-.104.08-.215.161-.333.24-.05.033-.203.143-.46.33-.271.21-.514.395-.73.556-.209.161-.334.26-.374.298-.092.082-.223.192-.393.33l-.62.495.134.14c.155.156.267.277.333.364.076.097.085.188.029.271-.04.054-.104.115-.194.185l-.284.202-.137.114-.37.26a16.87 16.87 0 0 0-.371-.369 5.326 5.326 0 0 1-.383-.395 4.648 4.648 0 0 1-.735-.771l-.202-.25c.098-.076.192-.155.284-.237.058-.051.12-.102.185-.152l.13-.1c.088-.154.144-.354.169-.597a1.494 1.494 0 0 1-.028-.16c-.037-.703-.466-1.627-1.288-2.772a13.696 13.696 0 0 1-.926-1.444c-.228-.429-.351-.682-.37-.759a10.668 10.668 0 0 1-.542-.644 8.51 8.51 0 0 1-.555-.807l-.19-.302.27-.21a.774.774 0 0 0 .1-.094.92.92 0 0 1 .122-.11l.55-.418c.166-.128.446-.336.84-.623l.456-.36c.248-.193.413-.309.492-.347.08-.045.17-.105.267-.18a90.695 90.695 0 0 1 3.486 4.52l.283.377.562.706c.137.176.271.357.404.543l.05.065c.064.083.133.162.208.236l.291-.216.199-.145c.1-.065.2-.137.3-.215l.18.267c.235.326.413.634.535.926.045.058.219.373.522.944l-.339.288-.27.21-.142.117ZM44.432 26.332c.995-.497 1.337-1.24 1.025-2.231-.05-.143-.104-.305-.159-.486-.16-.516-.291-.874-.39-1.073-.598-1.195-1.534-2.09-2.81-2.685a.824.824 0 0 1-.223.027.6.6 0 0 0-.296.064 1.103 1.103 0 0 0-.263.208c-.296.306-.476.526-.542.66-.138.416-.146.952-.022 1.608.125.657.283 1.178.477 1.566l.348.682c.184.366.346.721.486 1.063.051.01.201.117.45.319.295.254.518.415.669.483.249.09.592.053 1.03-.11.078-.029.151-.06.22-.095Zm.205 1.862c-.824.412-1.604.41-2.342-.007-.247-.146-.564-.419-.95-.816a10.683 10.683 0 0 1-1.037-1.232 4.051 4.051 0 0 1-.3-.493c-.097-.195-.145-.357-.143-.486a1.772 1.772 0 0 1-.146-.247c-.108-.217-.232-.555-.37-1.015a9.5 9.5 0 0 1-.314-1.517c-.068-.552-.042-.94.076-1.162-.047-.328.098-.747.435-1.256.334-.514.708-.902 1.122-1.165l.324-.192c.116-.073.22-.132.309-.177.087-.039.191-.065.312-.08a4.18 4.18 0 0 1 .953.013c.473.059.768.149.884.269.218.039.451.17.7.392.25.216.475.43.672.642.196.208.323.325.382.351.14.19.287.374.437.554.322.369.597.776.826 1.223.024.07.047.147.07.232.02.082.038.149.055.202.04.081.076.138.107.168a.586.586 0 0 1 .119.147c.075.161.123.333.143.517.017.104.036.203.058.3.135.482.178 1.016.128 1.601-.045.583-.218 1.077-.52 1.483-.202.391-.548.773-1.04 1.146-.328.25-.645.452-.95.605ZM55.77 24.106c-.818.182-1.567.197-2.245.044a.58.58 0 0 1 .01-.177c.017-.172.019-.291.004-.358a.157.157 0 0 1 .001-.057.948.948 0 0 0 .005-.07.119.119 0 0 0-.017-.046.096.096 0 0 1-.015-.039 1.038 1.038 0 0 1-.01-.2c.002-.099.01-.21.024-.335a.834.834 0 0 1 .078-.276c.16.025.328.057.505.097a2.792 2.792 0 0 0 2.131-.243c.165-.097.285-.197.361-.297.076-.101.14-.21.194-.324l.126-.224a2.038 2.038 0 0 1-.028-.28 2.343 2.343 0 0 0-.059-.422c-.35-1.154-1.25-1.596-2.697-1.325a2.968 2.968 0 0 0-.096-.371 2.15 2.15 0 0 1-.049-.186l-.025-.113a.933.933 0 0 0-.032-.112 1.192 1.192 0 0 1-.035-.125c-.01-.045-.002-.082.025-.11.462-.127.86-.414 1.195-.862.333-.452.45-.943.351-1.472-.157-.642-.406-1.018-.748-1.129-.257-.106-.637-.115-1.14-.026l-.062.007a.579.579 0 0 0-.165.015 2.175 2.175 0 0 0-.407.154c-.173.08-.362.314-.565.7a5.858 5.858 0 0 0-.27-.234c-.208-.16-.323-.29-.346-.392a.29.29 0 0 1 .044-.213c.267-.601.764-.992 1.49-1.172l.167-.037c.662-.148 1.27-.153 1.824-.014.347.175.546.28.596.315.082.057.163.137.242.24.079.1.188.255.328.467.127.214.228.49.304.829.008.035.03.159.068.37.041.205.027.423-.043.654.022.27-.003.563-.078.878-.075.316-.197.565-.366.747.103.024.196.05.277.078.2.021.363.062.489.123.13.06.272.163.426.311.18.16.334.344.459.55.157.286.298.687.421 1.201.054.24.062.383.026.429.028.147.016.355-.036.624-.053.268-.134.52-.245.755-.108.23-.228.361-.36.395-.055.134-.173.274-.355.422a4.236 4.236 0 0 1-1.119.67c-.167.065-.353.12-.558.166ZM62.622 23.096c-.797.043-1.424-.286-1.882-.987-.154-.243-.337-.63-.548-1.162a12.94 12.94 0 0 1-.517-1.58c-.07-.27-.11-.501-.12-.692a.989.989 0 0 1 .047-.407 1.895 1.895 0 0 1-.046-.346c-.013-.241.002-.6.044-1.077.043-.482.127-.995.252-1.54.126-.546.273-.9.443-1.065.073-.328.331-.662.774-1 .442-.344.876-.552 1.3-.625.128-.016.237-.031.327-.045a1.81 1.81 0 0 1 .252-.034.883.883 0 0 1 .33.05c.248.087.504.222.769.403.365.26.578.469.636.63.248.192.502.708.762 1.547.088.278.154.441.197.49.05.234.103.468.162.702.14.481.228.98.266 1.5-.001.66-.025 1.228-.073 1.7a5.356 5.356 0 0 1-.429 1.564c-.231.529-.536.922-.915 1.18-.29.28-.67.49-1.137.63-.314.094-.612.149-.894.164Zm.361-1.8c.706-.038 1.09-.577 1.152-1.616l.033-.522c.05-.614.065-1.08.048-1.4-.068-1.255-.301-2.276-.7-3.063-.21-.413-.476-.61-.799-.593a.863.863 0 0 0-.27.063 3.507 3.507 0 0 0-.354.17c-.137.075-.243.15-.316.222-.238.332-.38.83-.426 1.495a12.326 12.326 0 0 0-.033 1.542l.007.13c.027.249.052.583.075 1.002.018.341.027.67.026.984.048.048.132.212.252.493.162.375.29.619.382.733.17.191.411.308.724.35.065.01.13.014.2.01ZM74.629 23.461l-.094-.018a.703.703 0 0 1-.211-.062l-.123-.086.47-4.018-.288-.063a3.087 3.087 0 0 0-.483-.06 3.899 3.899 0 0 1-.512-.05 6.497 6.497 0 0 1-.611-.154l-.51-.134a43.21 43.21 0 0 0-.21.934c-.12.571-.284 1.233-.491 1.987a3.305 3.305 0 0 0-.049.213l-.08.48a2.482 2.482 0 0 1-.1.377 2.728 2.728 0 0 0-.398-.106l-.236-.039a2.715 2.715 0 0 1-.306-.038.583.583 0 0 1-.188-.072c-.078-.052-.086-.235-.025-.548.03-.157.08-.356.15-.597.348-2.259.548-3.538.602-3.839.15-.862.29-1.63.42-2.3.177-.908.298-1.414.365-1.517l.082-.423c.03-.156.073-.252.126-.288.058-.036.295-.013.71.068.26.05.444.107.553.17.124.076.168.21.13.402l-.02.1a8.411 8.411 0 0 0-.21 1.053l-.074.41c-.046.237-.1.468-.163.693a11.724 11.724 0 0 0-.291 1.461c.534.142 1.07.265 1.607.369.241.047.486.09.733.129.03-.129.062-.278.095-.448l.108-.592c.04-.252.085-.506.134-.76.066-.336.15-.738.255-1.205.106-.471.234-.832.385-1.081.131-.03.289-.027.472.008.246.048.46.12.64.216l-.5 2.966c-.092.758-.203 1.47-.333 2.136-.059.304-.118.574-.178.808.049.107.024.488-.076 1.142-.055.328-.098.573-.129.734-.02.103-.046.2-.078.29-.027.093-.053.19-.077.292a4.757 4.757 0 0 0-.07.578c-.01.124-.023.235-.038.335l-.01.227c-.138.02-.43-.007-.875-.08ZM81.055 23.666c1.03.418 1.814.183 2.351-.706.074-.132.16-.28.26-.44.28-.462.463-.796.547-1.003.501-1.238.554-2.532.158-3.883a.823.823 0 0 1-.169-.149.6.6 0 0 0-.244-.18 1.103 1.103 0 0 0-.33-.06c-.424-.02-.709-.01-.853.03-.403.171-.81.52-1.22 1.047-.411.527-.698.991-.86 1.392l-.282.712c-.154.38-.313.736-.477 1.068.026.045.046.228.058.548.005.39.031.664.08.821.097.246.352.48.764.7.073.04.145.074.217.103Zm-1.262 1.384c-.854-.345-1.368-.933-1.543-1.761-.053-.282-.058-.7-.016-1.253.042-.553.122-1.084.24-1.592.052-.215.11-.398.171-.55.082-.203.172-.346.27-.43.018-.08.048-.172.089-.273.09-.224.263-.54.517-.948.254-.409.564-.822.93-1.239.37-.415.678-.652.922-.71.216-.252.626-.42 1.23-.505.607-.088 1.145-.064 1.616.073l.359.115c.132.04.244.077.337.115.087.04.175.1.265.182.216.195.423.437.622.723.268.395.395.675.382.841.115.19.171.451.169.784.003.331-.01.641-.038.93-.026.284-.03.457-.011.519-.05.23-.092.462-.127.693a6.02 6.02 0 0 1-.372 1.428 2.921 2.921 0 0 1-.128.206c-.047.07-.086.128-.115.175a.684.684 0 0 0-.055.191.585.585 0 0 1-.032.187 1.635 1.635 0 0 1-.292.45c-.068.08-.13.16-.187.24-.273.42-.646.806-1.117 1.156-.467.351-.953.548-1.457.59-.426.107-.942.1-1.547-.023a6.008 6.008 0 0 1-1.082-.314ZM89.565 29.914l-.157-.11c-.25-.2-.449-.385-.594-.555.06-.227.287-.645.68-1.253.337-.52.643-.93.918-1.23a.29.29 0 0 0 .049-.05.076.076 0 0 0 .012-.033 1.146 1.146 0 0 0-.001-.099l-.352.205c-1.246.719-1.927 1.087-2.041 1.105-.097.057-.22.138-.369.243-.182.131-.293.2-.33.209-.112-.045-.33-.172-.65-.38-.532-.344-.824-.573-.875-.687.002-.02.01-.04.022-.06.082-.125.37-.306.863-.54.563-.266.897-.389 1.003-.369.055-.068.267-.18.635-.339a80.01 80.01 0 0 1 1.183-.496l.638-.255a3.47 3.47 0 0 0-.343-.377 4.637 4.637 0 0 1-.387-.446 6.337 6.337 0 0 1-.277-.415 1.842 1.842 0 0 1-.203-.416 1.336 1.336 0 0 1-.144-.948c.065-.353.163-.63.291-.829.065-.1.14-.19.224-.27a.424.424 0 0 1 .077-.22c.26-.401.596-.729 1.01-.982.314-.193.624-.27.93-.23.132-.087.33-.115.59-.082.267.032.533.095.797.19.267.091.47.181.607.27l.36.225c.684.442 1.33.928 1.939 1.457l-.119.184c-.148.23-.417.62-.806 1.172a3.59 3.59 0 0 1-.172.239c-.16.206-.3.4-.418.584-.104.16-.18.307-.227.44-.4.484-.963 1.287-1.688 2.408l-.126.195a18.532 18.532 0 0 1-1.144 1.58c-.088.112-.211.277-.369.495-.281.393-.449.61-.503.652a.992.992 0 0 1-.533-.182Zm1.89-5.518.297.184c.11-.162.206-.288.285-.378.098-.126.17-.224.214-.293.052-.08.108-.183.166-.307.031-.057.073-.125.125-.205.146-.226.361-.518.647-.876.155-.198.276-.342.362-.433l-.18-.125c-.907-.586-1.64-.673-2.201-.26a2.64 2.64 0 0 0-.45.508c-.111.172-.178.405-.2.7-.031.333.048.62.239.863.193.24.425.446.697.622ZM96.981 32.69c-.437.434-.979.613-1.624.537-.64-.076-1.194-.272-1.664-.589a7.186 7.186 0 0 1-1.023-.765 6.775 6.775 0 0 1-.504-.513c.179-.25.567-.714 1.164-1.39a51.872 51.872 0 0 1 1.983-2.16c.468-.487.793-.774.976-.86.012-.026.068-.095.17-.206.1-.111.22-.24.359-.385a838.308 838.308 0 0 1 .774-.81c.129-.142.26-.297.395-.465.09-.12.184-.232.279-.337.18-.199.368-.367.561-.506l.182.166a17.879 17.879 0 0 1 .965.86c.125.12.26.245.405.377l.334.304c.108.098.224.197.348.298.134.097.256.196.367.297.189.172.349.351.481.538l-.492.551a.937.937 0 0 0-.078.096c-.03.04-.061.077-.091.11a.595.595 0 0 1-.248.182c-.092.033-.226-.03-.401-.19l-.026-.022a10.223 10.223 0 0 1-.522-.513 12.87 12.87 0 0 0-.412-.411l-.171-.157a18.84 18.84 0 0 1-.522-.493c-.518.509-1.04 1.014-1.564 1.516a30.3 30.3 0 0 1-.542.524c.207.213.411.463.612.75.2.288.34.565.416.832.2.323.276.68.23 1.069-.025.224-.082.44-.173.647a4.46 4.46 0 0 1-.257.394c-.127.18-.258.348-.392.503l-.032.035c-.12.132-.207.194-.263.187Zm-2.78-1.78-.278.348c.093.115.191.22.296.315.172.156.363.287.575.394.161.073.305.111.431.115.126.003.25-.004.372-.023a3.03 3.03 0 0 1 .25-.03c.068-.062.136-.12.205-.175.096-.072.195-.161.297-.266.388-.447.449-.944.18-1.49a2.075 2.075 0 0 0-.75-.82l-.018.02a2.409 2.409 0 0 0-.199.189l-.032.035a1.9 1.9 0 0 0-.15.196l-1.178 1.193ZM103.16 33.822c.819.91 1.522 1.149 2.109.717.336-.281.469-.64.398-1.077a3.038 3.038 0 0 0-.24-.594 3.31 3.31 0 0 0-.307-.524l-.732.584c-.391.307-.8.605-1.228.894Zm-5.195 3.069-.055-.07c-.14-.18-.242-.36-.304-.543.449-.469.971-.936 1.566-1.403.441-.346.924-.694 1.45-1.043.552-.375 1.028-.72 1.43-1.035l.85-.71.161-.127c.463-.363.737-.534.822-.514a1.65 1.65 0 0 1 .185-.163c.057-.045.15-.115.278-.21.131-.091.292-.2.483-.326.193-.123.333-.204.418-.242.159.061.35.235.575.522.318.405.616.881.894 1.427.229.447.352.796.371 1.048.017.369.023.59.017.664-.015.151-.123.416-.325.794a2.442 2.442 0 0 1-.592.63l-.24.18c-.15.111-.335.178-.555.2-.236.128-.546.209-.93.244s-.7.002-.948-.1a5.514 5.514 0 0 1-1.658-1.227 9.319 9.319 0 0 0-.781.466c-.749.477-1.323.872-1.72 1.184l-.169.141c-.1.079-.186.143-.257.193l-.08.063c-.14.11-.258.24-.354.39a1.733 1.733 0 0 1-.532-.433ZM103.774 45.659l-.086-.171a4.41 4.41 0 0 1-.258-.77c.161-.172.559-.431 1.195-.779.544-.297 1.008-.512 1.393-.645a.297.297 0 0 0 .066-.02.08.08 0 0 0 .027-.023.078.078 0 0 0 .02-.034l.026-.053-.407.012c-1.438.038-2.212.038-2.322 0a5.88 5.88 0 0 0-.439.037c-.223.029-.353.038-.39.027-.077-.093-.207-.308-.391-.644-.304-.556-.451-.896-.441-1.02a.129.129 0 0 1 .047-.042c.132-.072.471-.094 1.016-.065.622.034.974.085 1.058.154.081-.034.32-.032.719.004.399.036.825.079 1.278.127l.682.08a3.59 3.59 0 0 0-.122-.495 4.62 4.62 0 0 1-.129-.576 7.06 7.06 0 0 1-.046-.497 1.854 1.854 0 0 1 .02-.463c-.008-.328.1-.629.325-.902.226-.28.443-.476.651-.59.104-.057.213-.1.326-.131a.42.42 0 0 1 .171-.157c.42-.23.872-.357 1.357-.383.368-.02.677.06.927.241.158-.014.344.056.558.21.22.154.423.337.61.546.192.207.326.383.405.526l.21.369c.391.716.728 1.45 1.011 2.205l-.192.105a41.1 41.1 0 0 1-1.268.646 3.616 3.616 0 0 1-.264.13 8.21 8.21 0 0 0-.646.314 2.203 2.203 0 0 0-.409.278c-.583.236-1.46.674-2.632 1.314l-.203.112c-.572.312-1.158.594-1.759.844-.131.056-.317.143-.56.26-.434.211-.685.323-.752.333-.148-.08-.275-.218-.382-.414Zm4.29-3.951.173.303c.175-.09.318-.156.431-.197a2.676 2.676 0 0 0 .62-.347c.054-.035.123-.075.207-.12a11.6 11.6 0 0 1 .986-.462c.231-.1.406-.17.525-.21l-.099-.194c-.518-.948-1.122-1.373-1.812-1.277-.257.063-.469.14-.637.232-.18.098-.35.272-.51.52a1.17 1.17 0 0 0-.201.873c.056.302.162.595.317.879ZM107.426 54.556l-.356-1.278c-.259-.926-.4-1.44-.424-1.542-.035-.127-.007-.282.084-.463l1.009-.176c.013.049.05.064.112.047l.033-.01a.387.387 0 0 1 .089-.01c.038 0 .102.033.192.103a.87.87 0 0 1 .215.21c.084.132.337.303.76.511.673.328 1.311.588 1.914.779.373.118.581.202.623.252.123-.02.341.035.657.164.123.051.238.092.346.123.962.276 1.601.37 1.917.282.177-.078.303-.153.377-.226a1.15 1.15 0 0 0 .213-.28 2.49 2.49 0 0 1 .103-.163c.126-.196.162-.386.111-.57a1.403 1.403 0 0 0-.207-.411c-.18-.239-.383-.373-.61-.405a2.802 2.802 0 0 0-.792.037l-.034.002c-.103-.165-.266-.645-.487-1.44-.006-.055.003-.097.028-.128l.042-.026c.446-.03.991.007 1.635.111.646.109 1.122.316 1.43.623l.655 1.074c.004.05.018.122.039.216.218.781.103 1.421-.344 1.92-.269.378-.672.687-1.211.927-.138.062-.28.114-.425.154a3.518 3.518 0 0 1-1.366.09c-.416-.068-1.121-.261-2.114-.58a49.005 49.005 0 0 1-2.759-.962c.116.384.22.738.311 1.063.09.325.146.55.167.677.019.1.046.215.083.346l.038.138c.101.36.147.6.138.721-.182.146-.354.241-.517.287l-.019.005a1.838 1.838 0 0 0-.412.179l-.504.077a4.923 4.923 0 0 1-.218-.656l-.113-.43a13.062 13.062 0 0 0-.117-.443 3.164 3.164 0 0 0-.094-.286 9.222 9.222 0 0 1-.091-.301 2.053 2.053 0 0 0-.052-.163 2.061 2.061 0 0 1-.055-.17ZM108.117 60.483c-.086-.793.208-1.437.883-1.932.234-.167.611-.37 1.131-.61.519-.24 1.036-.44 1.55-.602.266-.083.495-.136.685-.156a.987.987 0 0 1 .408.024c.093-.028.208-.05.344-.064.24-.026.599-.031 1.078-.014.483.016 1 .073 1.551.169.552.096.914.224 1.087.384.332.056.679.295 1.041.72.367.422.598.844.694 1.265.023.126.044.233.062.323.024.094.04.177.048.25a.89.89 0 0 1-.033.333c-.073.25-.194.514-.361.788-.239.38-.437.602-.594.67-.179.258-.68.539-1.504.844-.273.102-.433.177-.478.223a18.83 18.83 0 0 0-.693.2 7.182 7.182 0 0 1-1.483.345c-.66.035-1.228.042-1.703.02a5.362 5.362 0 0 1-1.584-.344c-.54-.203-.949-.486-1.227-.85-.295-.276-.525-.642-.69-1.101a3.825 3.825 0 0 1-.212-.885Zm1.816.264c.076.702.635 1.056 1.676 1.063l.523.005c.616.016 1.083.007 1.4-.028 1.25-.135 2.257-.423 3.021-.864.401-.231.584-.508.549-.83a.856.856 0 0 0-.077-.266 3.408 3.408 0 0 0-.188-.344 1.468 1.468 0 0 0-.239-.304c-.345-.22-.85-.334-1.516-.345-.606-.012-1.12.005-1.542.05l-.129.014c-.248.041-.58.084-.997.13-.339.036-.667.062-.981.078-.045.05-.205.144-.479.279-.365.181-.602.322-.711.42-.182.18-.286.428-.311.743a.886.886 0 0 0 .001.199ZM46.98 59.885c-1.937-1.977-2.905-4.337-2.905-7.08 0-2.744.968-5.084 2.904-7.02 1.977-1.977 4.337-2.966 7.08-2.966 2.744 0 5.084.989 7.02 2.965 1.977 1.937 2.966 4.277 2.966 7.02 0 2.744-.989 5.104-2.966 7.08-1.936 1.937-4.276 2.905-7.02 2.905-2.743 0-5.103-.968-7.08-2.904Zm3.146 25.9 25.417-42.36h3.933L54.06 85.784h-3.934Zm-.605-37.761c-1.21 1.25-1.816 2.844-1.816 4.78 0 1.937.606 3.53 1.816 4.781 1.21 1.25 2.723 1.876 4.539 1.876 1.815 0 3.328-.625 4.538-1.876 1.21-1.25 1.816-2.844 1.816-4.78 0-1.937-.605-3.53-1.816-4.782-1.21-1.25-2.723-1.876-4.538-1.876-1.816 0-3.329.626-4.54 1.877Zm18.941 35.462c-1.936-1.977-2.904-4.337-2.904-7.08 0-2.744.968-5.084 2.904-7.02 1.977-1.977 4.337-2.966 7.08-2.966 2.744 0 5.084.989 7.02 2.966 1.977 1.936 2.966 4.276 2.966 7.02 0 2.743-.989 5.103-2.965 7.08-1.937 1.936-4.277 2.905-7.02 2.905-2.744 0-5.104-.969-7.08-2.905Zm2.542-11.861c-1.21 1.25-1.815 2.844-1.815 4.78 0 1.937.605 3.53 1.815 4.781 1.21 1.25 2.723 1.876 4.539 1.876 1.815 0 3.328-.625 4.538-1.876 1.21-1.25 1.816-2.844 1.816-4.78 0-1.937-.605-3.53-1.816-4.781-1.21-1.251-2.723-1.876-4.538-1.876-1.816 0-3.329.625-4.539 1.876Z"/><defs><radialGradient id="a" cx="0" cy="0" r="1" gradientTransform="rotate(90 0 65.5) scale(65.5)" gradientUnits="userSpaceOnUse"><stop stop-color="#FFD949"/><stop offset="1" stop-color="#FFCA00"/></radialGradient></defs></svg>