<svg width="28" height="61" fill="none" xmlns="http://www.w3.org/2000/svg"><path d="M14.14 38.458C6.674 38.458 0 33.004 0 25.45l2.828-14.139C4.978 3.96 8.483 0 14.139 0c7.465 0 11.877 3.758 11.877 11.311l1.697 13.413c0 7.553-6.11 13.734-13.574 13.734Z" fill="#7BC35A"/><path d="m6.66 43.404 5.914 4.753a3 3 0 0 0 3.482.198l6.415-4.053M10.18 56.231l4.273 2.626a3 3 0 0 0 3.479-.241l3.87-3.19" stroke="#7BC35A" stroke-width="3" stroke-linecap="round" stroke-linejoin="round"/><path d="M14.14 11.311v4.525" stroke="#fff" stroke-width="2" stroke-linecap="round" stroke-linejoin="round"/></svg>